<svg width="61" height="36" viewBox="0 0 61 36" fill="none" xmlns="http://www.w3.org/2000/svg">
<path d="M11.2767 31.1326L8.51843 27.5122H28.1714L25.9303 31.1326H11.2767Z" fill="#E8E6ED" stroke="#0B2C62"/>
<path d="M40.9677 30.9507L38.2094 27.3303H57.8623L55.6212 30.9507H40.9677Z" fill="#E8E6ED" stroke="#0B2C62"/>
<circle cx="14.2483" cy="31.6168" r="3" fill="#0B2C62" stroke="#0B2C62"/>
<circle cx="43.9392" cy="31.4348" r="3" fill="#0B2C62" stroke="#0B2C62"/>
<circle cx="22.4415" cy="31.6168" r="3" fill="#0B2C62" stroke="#0B2C62"/>
<circle cx="52.1324" cy="31.4348" r="3" fill="#0B2C62" stroke="#0B2C62"/>
<rect x="21.4193" y="31.1327" width="2.04443" height="0.968384" fill="white"/>
<rect x="51.1102" y="30.9507" width="2.04443" height="0.968384" fill="white"/>
<rect x="13.2261" y="31.1327" width="2.04443" height="0.968384" fill="white"/>
<rect x="42.917" y="30.9507" width="2.04443" height="0.968384" fill="white"/>
<rect x="6.12732" y="25.2794" width="54.1947" height="3.18713" fill="#E8E6ED" stroke="#0B2C62"/>
<rect x="26.9105" y="4.14148" width="12.5083" height="2.50012" fill="#0B2C62" stroke="#0B2C62"/>
<rect x="16.3383" y="4.9519" width="3.57275" height="2.1897" fill="#0B2C62"/>
<rect x="46.4174" y="4.72229" width="3.57275" height="2.1897" fill="#0B2C62"/>
<rect x="8.08044" y="6.54675" width="50.2886" height="18.7327" rx="4.5" fill="#0B2C62" stroke="#0B2C62"/>
<rect x="0.724487" y="9.57288" width="15" height="11" fill="#15386C"/>
<rect x="0.724487" y="9.57288" width="15" height="11" stroke="#0B2C62"/>
<path d="M8.72449 12.3229V19.0729H7.74449V14.8229C7.74449 14.4695 7.77115 14.1795 7.82449 13.9529L7.79449 13.9329C7.72782 14.0462 7.60449 14.1495 7.42449 14.2429L6.57449 14.7029V13.7229L7.81449 12.8529L7.98449 12.3229H8.72449Z" fill="white"/>
</svg>
