<svg width="61" height="36" viewBox="0 0 61 36" fill="none" xmlns="http://www.w3.org/2000/svg">
<path d="M11.2836 31.1483L8.52527 27.528H28.1782L25.9371 31.1483H11.2836Z" fill="#E8E6ED" stroke="#0B2C62"/>
<path d="M40.9745 30.9664L38.2162 27.3461H57.8692L55.628 30.9664H40.9745Z" fill="#E8E6ED" stroke="#0B2C62"/>
<circle cx="14.2551" cy="31.6326" r="3" fill="#0B2C62" stroke="#0B2C62"/>
<circle cx="43.946" cy="31.4506" r="3" fill="#0B2C62" stroke="#0B2C62"/>
<circle cx="22.4484" cy="31.6326" r="3" fill="#0B2C62" stroke="#0B2C62"/>
<circle cx="52.1393" cy="31.4506" r="3" fill="#0B2C62" stroke="#0B2C62"/>
<rect x="21.4261" y="31.1484" width="2.04443" height="0.968384" fill="white"/>
<rect x="51.1171" y="30.9664" width="2.04443" height="0.968384" fill="white"/>
<rect x="13.2329" y="31.1484" width="2.04443" height="0.968384" fill="white"/>
<rect x="42.9238" y="30.9664" width="2.04443" height="0.968384" fill="white"/>
<rect x="6.13416" y="25.2952" width="54.1947" height="3.18713" fill="#E8E6ED" stroke="#0B2C62"/>
<rect x="14.7186" y="10.826" width="14.6898" height="1.11673" transform="rotate(100.267 14.7186 10.826)" fill="#0B2C62"/>
<path d="M11.62 8.26868V4.77716H56.6603V8.26868H55.4965V11.1783H53.2852V23.0494C50.2204 23.6313 42.1822 24.7952 34.5475 24.7952C26.9127 24.7952 18.1762 23.6313 14.7622 23.0494V11.1783H12.5509V8.26868H11.62Z" fill="#0B2C62" stroke="#0B2C62"/>
<rect width="14.2979" height="1.11673" transform="matrix(-0.178232 -0.983988 -0.983988 0.178232 57.0477 25.1741)" fill="#0B2C62"/>
<rect x="0.731323" y="9.58862" width="15" height="11" fill="#15386C"/>
<rect x="0.731323" y="9.58862" width="15" height="11" stroke="#0B2C62"/>
<path d="M8.73132 12.3386V19.0886H7.75132V14.8386C7.75132 14.4853 7.77799 14.1953 7.83132 13.9686L7.80132 13.9486C7.73466 14.062 7.61132 14.1653 7.43132 14.2586L6.58132 14.7186V13.7386L7.82132 12.8686L7.99132 12.3386H8.73132Z" fill="white"/>
</svg>
