<svg width="61" height="36" viewBox="0 0 61 36" fill="none" xmlns="http://www.w3.org/2000/svg">
<rect x="8.18933" y="15.5193" width="50.921" height="9.63171" fill="#0B2C62" stroke="#0B2C62"/>
<path d="M11.2836 31.0906L8.52527 27.4702H28.1782L25.9371 31.0906H11.2836Z" fill="#E8E6ED" stroke="#0B2C62"/>
<path d="M40.9745 30.9087L38.2162 27.2884H57.8692L55.628 30.9087H40.9745Z" fill="#E8E6ED" stroke="#0B2C62"/>
<circle cx="14.2551" cy="31.5749" r="3" fill="#0B2C62" stroke="#0B2C62"/>
<circle cx="43.946" cy="31.3929" r="3" fill="#0B2C62" stroke="#0B2C62"/>
<circle cx="22.4484" cy="31.5749" r="3" fill="#0B2C62" stroke="#0B2C62"/>
<circle cx="52.1393" cy="31.3929" r="3" fill="#0B2C62" stroke="#0B2C62"/>
<rect x="21.4261" y="31.0907" width="2.04443" height="0.968384" fill="white"/>
<rect x="51.1171" y="30.9087" width="2.04443" height="0.968384" fill="white"/>
<rect x="13.2329" y="31.0907" width="2.04443" height="0.968384" fill="white"/>
<rect x="42.9238" y="30.9087" width="2.04443" height="0.968384" fill="white"/>
<rect x="59.6102" y="5.03088" width="10.6922" height="2.70605" transform="rotate(90 59.6102 5.03088)" fill="#15386C"/>
<rect x="6.13416" y="25.2375" width="54.1947" height="3.18713" fill="#E8E6ED" stroke="#0B2C62"/>
<rect x="0.731323" y="8.53091" width="15" height="11" fill="#15386C"/>
<rect x="0.731323" y="8.53091" width="15" height="11" stroke="#0B2C62"/>
<path d="M8.73132 11.2809V18.0309H7.75132V13.7809C7.75132 13.4276 7.77799 13.1376 7.83132 12.9109L7.80132 12.8909C7.73466 13.0042 7.61132 13.1076 7.43132 13.2009L6.58132 13.6609V12.6809L7.82132 11.8109L7.99132 11.2809H8.73132Z" fill="white"/>
</svg>
