<svg width="61" height="36" viewBox="0 0 61 36" fill="none" xmlns="http://www.w3.org/2000/svg">
<rect x="8.18982" y="15.5952" width="50.921" height="9.63171" fill="#0B2C62" stroke="#0B2C62"/>
<rect x="0.731812" y="9.60675" width="15" height="11" fill="#0B2C62"/>
<rect x="0.731812" y="9.60675" width="15" height="11" stroke="white"/>
<path d="M8.73181 12.3568V19.1068H7.75181V14.8568C7.75181 14.5034 7.77848 14.2134 7.83181 13.9868L7.80181 13.9668C7.73514 14.0801 7.61181 14.1834 7.43181 14.2768L6.58181 14.7368V13.7568L7.82181 12.8868L7.99181 12.3568H8.73181Z" fill="white"/>
<path d="M11.2836 31.1483L8.52527 27.528H28.1782L25.9371 31.1483H11.2836Z" fill="white" stroke="#0B2C62"/>
<path d="M40.9745 30.9664L38.2162 27.3461H57.8692L55.628 30.9664H40.9745Z" fill="white" stroke="#0B2C62"/>
<circle cx="14.2551" cy="31.6326" r="3.5" fill="#0B2C62"/>
<circle cx="43.946" cy="31.4506" r="3.5" fill="#0B2C62"/>
<circle cx="22.4484" cy="31.6326" r="3.5" fill="#0B2C62"/>
<circle cx="52.1393" cy="31.4506" r="3.5" fill="#0B2C62"/>
<rect x="21.4261" y="31.1484" width="2.04443" height="0.968384" fill="white"/>
<rect x="51.1171" y="30.9664" width="2.04443" height="0.968384" fill="white"/>
<rect x="13.2329" y="31.1484" width="2.04443" height="0.968384" fill="white"/>
<rect x="42.9238" y="30.9664" width="2.04443" height="0.968384" fill="white"/>
<rect x="6.13416" y="25.2952" width="54.1947" height="3.18713" fill="white" stroke="#0B2C62"/>
<circle cx="18.2513" cy="24.6494" r="3" fill="#0B2C62" stroke="white"/>
<rect x="17.2289" y="24.1653" width="2.04443" height="0.968384" fill="white"/>
<circle cx="32.9423" cy="24.4674" r="3" fill="#0B2C62" stroke="white"/>
<rect x="31.9198" y="23.9833" width="2.04443" height="0.968384" fill="white"/>
<circle cx="48.1351" cy="24.4674" r="3" fill="#0B2C62" stroke="white"/>
<rect x="47.1132" y="23.9833" width="2.04443" height="0.968384" fill="white"/>
</svg>
