<svg width="62" height="36" viewBox="0 0 62 36" fill="none" xmlns="http://www.w3.org/2000/svg">
<rect x="8.56219" y="4.91626" width="50.921" height="20.2404" fill="#0B2C62" stroke="#0B2C62"/>
<path d="M11.6561 31.0962L8.89777 27.4758H28.5507L26.3096 31.0962H11.6561Z" fill="white" stroke="#0B2C62"/>
<path d="M41.347 30.9143L38.5887 27.2939H58.2417L56.0005 30.9143H41.347Z" fill="white" stroke="#0B2C62"/>
<circle cx="14.6276" cy="31.5804" r="3.5" fill="#0B2C62"/>
<circle cx="44.3185" cy="31.3984" r="3.5" fill="#0B2C62"/>
<circle cx="22.8209" cy="31.5804" r="3.5" fill="#0B2C62"/>
<circle cx="52.5118" cy="31.3984" r="3.5" fill="#0B2C62"/>
<rect x="21.7986" y="31.0963" width="2.04443" height="0.968384" fill="white"/>
<rect x="51.4896" y="30.9143" width="2.04443" height="0.968384" fill="white"/>
<rect x="13.6054" y="31.0963" width="2.04443" height="0.968384" fill="white"/>
<rect x="43.2963" y="30.9143" width="2.04443" height="0.968384" fill="white"/>
<rect x="6.50665" y="25.243" width="54.1947" height="3.18713" fill="white" stroke="#0B2C62"/>
<rect x="1.29865" y="9.5249" width="15" height="11" fill="#0B2C62"/>
<rect x="1.29865" y="9.5249" width="15" height="11" stroke="white"/>
<path d="M9.29865 12.2749V19.0249H8.31865V14.7749C8.31865 14.4216 8.34531 14.1316 8.39865 13.9049L8.36865 13.8849C8.30198 13.9982 8.17865 14.1016 7.99865 14.1949L7.14865 14.6549V13.6749L8.38865 12.8049L8.55865 12.2749H9.29865Z" fill="white"/>
</svg>
