<svg width="61" height="36" viewBox="0 0 61 36" fill="none" xmlns="http://www.w3.org/2000/svg">
<path d="M11.4546 31.5522L8.69629 27.9319H28.3493L26.1081 31.5522H11.4546Z" fill="#EB5835" stroke="#E32112"/>
<path d="M41.1455 31.3704L38.3872 27.75H58.0402L55.7991 31.3704H41.1455Z" fill="#EB5835" stroke="#E32112"/>
<circle cx="14.4263" cy="32.0365" r="3.5" fill="#E32112"/>
<circle cx="44.1172" cy="31.8545" r="3.5" fill="#E32112"/>
<circle cx="22.6194" cy="32.0365" r="3.5" fill="#E32112"/>
<circle cx="52.3103" cy="31.8545" r="3.5" fill="#E32112"/>
<rect x="21.5972" y="31.5524" width="2.04443" height="0.968384" fill="white"/>
<rect x="51.2881" y="31.3704" width="2.04443" height="0.968384" fill="white"/>
<rect x="13.4038" y="31.5524" width="2.04443" height="0.968384" fill="white"/>
<rect x="43.0947" y="31.3704" width="2.04443" height="0.968384" fill="white"/>
<rect x="6.30518" y="25.6991" width="54.1947" height="3.18713" fill="#EB5835" stroke="#E32112"/>
<rect x="27.0884" y="4.56116" width="12.5083" height="2.50012" fill="#EB5835" stroke="#E32112"/>
<rect x="16.5161" y="5.37158" width="3.57275" height="2.1897" fill="#E32112"/>
<rect x="46.5952" y="5.14197" width="3.57275" height="2.1897" fill="#E32112"/>
<rect x="8.2583" y="6.96643" width="50.2886" height="18.7327" rx="4.5" fill="#EB5835" stroke="#E32112"/>
<rect x="0.902344" y="9.99255" width="15" height="11" fill="#EB5835"/>
<rect x="0.902344" y="9.99255" width="15" height="11" stroke="#E32112"/>
<path d="M8.90234 12.7426V19.4926H7.92234V15.2426C7.92234 14.8892 7.94901 14.5992 8.00234 14.3726L7.97234 14.3526C7.90568 14.4659 7.78234 14.5692 7.60234 14.6626L6.75234 15.1226V14.1426L7.99234 13.2726L8.16234 12.7426H8.90234Z" fill="white"/>
</svg>
