<svg width="62" height="36" viewBox="0 0 62 36" fill="none" xmlns="http://www.w3.org/2000/svg">
<path d="M11.8628 31.7029L9.10449 28.0825H28.7575L26.5163 31.7029H11.8628Z" fill="#EB5835" stroke="#E32112"/>
<path d="M41.5537 31.521L38.7954 27.9006H58.4484L56.2073 31.521H41.5537Z" fill="#EB5835" stroke="#E32112"/>
<circle cx="14.8345" cy="32.1871" r="3.5" fill="#E32112"/>
<circle cx="44.5254" cy="32.0051" r="3.5" fill="#E32112"/>
<circle cx="23.0276" cy="32.1871" r="3.5" fill="#E32112"/>
<circle cx="52.7185" cy="32.0051" r="3.5" fill="#E32112"/>
<rect x="22.0054" y="31.703" width="2.04443" height="0.968384" fill="white"/>
<rect x="51.6963" y="31.521" width="2.04443" height="0.968384" fill="white"/>
<rect x="13.812" y="31.703" width="2.04443" height="0.968384" fill="white"/>
<rect x="43.5029" y="31.521" width="2.04443" height="0.968384" fill="white"/>
<rect x="6.71338" y="25.8497" width="54.1947" height="3.18713" fill="#EB5835" stroke="#E32112"/>
<rect x="15.2979" y="11.3806" width="14.6898" height="1.11673" transform="rotate(100.267 15.2979 11.3806)" fill="#E32112"/>
<path d="M12.1992 8.82324V5.33173H57.2396V8.82324H56.0757V11.7328H53.8644V23.604C50.7997 24.1859 42.7614 25.3497 35.1267 25.3497C27.4919 25.3497 18.7554 24.1859 15.3415 23.604V11.7328H13.1302V8.82324H12.1992Z" fill="#EB5835" stroke="#E32112"/>
<rect width="14.2979" height="1.11673" transform="matrix(-0.178232 -0.983988 -0.983988 0.178232 57.627 25.7287)" fill="#E32112"/>
<rect x="1.31055" y="10.1432" width="15" height="11" fill="#EB5835"/>
<rect x="1.31055" y="10.1432" width="15" height="11" stroke="#E32112"/>
<path d="M9.31055 12.8932V19.6432H8.33055V15.3932C8.33055 15.0399 8.35721 14.7499 8.41055 14.5232L8.38055 14.5032C8.31388 14.6165 8.19055 14.7199 8.01055 14.8132L7.16055 15.2732V14.2932L8.40055 13.4232L8.57055 12.8932H9.31055Z" fill="white"/>
</svg>
