<svg width="62" height="36" viewBox="0 0 62 36" fill="none" xmlns="http://www.w3.org/2000/svg">
<path d="M8.70361 8.58569C8.70361 6.10041 10.7183 4.08569 13.2036 4.08569H55.1246C57.6099 4.08569 59.6246 6.10041 59.6246 8.58569V25.1724H8.70361V8.58569Z" fill="#EB5835" stroke="#E32112"/>
<path d="M11.7976 31.1119L9.03931 27.4916H28.6923L26.4512 31.1119H11.7976Z" fill="#EB5835" stroke="#E32112"/>
<path d="M41.4885 30.9301L38.7302 27.3097H58.3832L56.1421 30.9301H41.4885Z" fill="#EB5835" stroke="#E32112"/>
<circle cx="14.769" cy="31.5962" r="3.5" fill="#E32112"/>
<circle cx="44.46" cy="31.4142" r="3.5" fill="#E32112"/>
<circle cx="22.9624" cy="31.5962" r="3.5" fill="#E32112"/>
<circle cx="52.6533" cy="31.4142" r="3.5" fill="#E32112"/>
<rect x="21.9402" y="31.1121" width="2.04443" height="0.968384" fill="white"/>
<rect x="51.6311" y="30.9301" width="2.04443" height="0.968384" fill="white"/>
<rect x="13.7471" y="31.1121" width="2.04443" height="0.968384" fill="white"/>
<rect x="43.438" y="30.9301" width="2.04443" height="0.968384" fill="white"/>
<rect x="6.64819" y="25.2588" width="54.1947" height="3.18713" fill="#EB5835" stroke="#E32112"/>
<rect x="1.24561" y="9.55225" width="15" height="11" fill="#EB5835"/>
<rect x="1.24561" y="9.55225" width="15" height="11" stroke="#E32112"/>
<path d="M9.24561 12.3022V19.0522H8.26561V14.8022C8.26561 14.4489 8.29227 14.1589 8.34561 13.9322L8.31561 13.9122C8.24894 14.0256 8.12561 14.1289 7.94561 14.2222L7.09561 14.6822V13.7022L8.33561 12.8322L8.50561 12.3022H9.24561Z" fill="white"/>
</svg>
