<svg width="61" height="36" viewBox="0 0 61 36" fill="none" xmlns="http://www.w3.org/2000/svg">
<rect x="8.35791" y="15.8971" width="50.921" height="9.63171" fill="#EB5835" stroke="#E32112"/>
<path d="M11.4519 31.4684L8.6936 27.848H28.3466L26.1055 31.4684H11.4519Z" fill="#EB5835" stroke="#E32112"/>
<path d="M41.1428 31.2865L38.3845 27.6661H58.0375L55.7964 31.2865H41.1428Z" fill="#EB5835" stroke="#E32112"/>
<circle cx="14.4233" cy="31.9526" r="3.5" fill="#E32112"/>
<circle cx="44.1143" cy="31.7706" r="3.5" fill="#E32112"/>
<circle cx="22.6167" cy="31.9526" r="3.5" fill="#E32112"/>
<circle cx="52.3076" cy="31.7706" r="3.5" fill="#E32112"/>
<rect x="21.5945" y="31.4685" width="2.04443" height="0.968384" fill="white"/>
<rect x="51.2854" y="31.2865" width="2.04443" height="0.968384" fill="white"/>
<rect x="13.4014" y="31.4685" width="2.04443" height="0.968384" fill="white"/>
<rect x="43.0923" y="31.2865" width="2.04443" height="0.968384" fill="white"/>
<rect x="6.30249" y="25.6152" width="54.1947" height="3.18713" fill="#EB5835" stroke="#E32112"/>
<rect x="0.899902" y="9.90869" width="15" height="11" fill="#EB5835"/>
<rect x="0.899902" y="9.90869" width="15" height="11" stroke="#E32112"/>
<path d="M8.8999 12.6587V19.4087H7.9199V15.1587C7.9199 14.8054 7.94657 14.5154 7.9999 14.2887L7.9699 14.2687C7.90324 14.382 7.7799 14.4854 7.5999 14.5787L6.7499 15.0387V14.0587L7.9899 13.1887L8.1599 12.6587H8.8999Z" fill="white"/>
</svg>
