<svg width="61" height="36" viewBox="0 0 61 36" fill="none" xmlns="http://www.w3.org/2000/svg">
<rect x="7.9585" y="15.939" width="50.921" height="9.63171" fill="#EB5835" stroke="#E32112"/>
<path d="M11.0525 31.5103L8.29419 27.8899H27.9472L25.706 31.5103H11.0525Z" fill="#EB5835" stroke="#E32112"/>
<path d="M40.7434 31.3284L37.9851 27.708H57.6381L55.397 31.3284H40.7434Z" fill="#EB5835" stroke="#E32112"/>
<circle cx="14.0239" cy="31.9945" r="3.5" fill="#E32112"/>
<circle cx="43.7148" cy="31.8125" r="3.5" fill="#E32112"/>
<circle cx="22.2173" cy="31.9945" r="3.5" fill="#E32112"/>
<circle cx="51.9082" cy="31.8125" r="3.5" fill="#E32112"/>
<rect x="21.1951" y="31.5104" width="2.04443" height="0.968384" fill="white"/>
<rect x="50.886" y="31.3284" width="2.04443" height="0.968384" fill="white"/>
<rect x="13.002" y="31.5104" width="2.04443" height="0.968384" fill="white"/>
<rect x="42.6929" y="31.3284" width="2.04443" height="0.968384" fill="white"/>
<rect x="59.3792" y="5.45053" width="10.69" height="2.70605" transform="rotate(90 59.3792 5.45053)" fill="#E32112"/>
<rect x="5.90308" y="25.6571" width="54.1947" height="3.18713" fill="#EB5835" stroke="#E32112"/>
<rect x="0.500488" y="9.95056" width="15" height="11" fill="#EB5835"/>
<rect x="0.500488" y="9.95056" width="15" height="11" stroke="#E32112"/>
<path d="M8.50049 12.7006V19.4506H7.52049V15.2006C7.52049 14.8472 7.54716 14.5572 7.60049 14.3306L7.57049 14.3106C7.50382 14.4239 7.38049 14.5272 7.20049 14.6206L6.35049 15.0806V14.1006L7.59049 13.2306L7.76049 12.7006H8.50049Z" fill="white"/>
</svg>
