<svg width="62" height="35" viewBox="0 0 62 35" fill="none" xmlns="http://www.w3.org/2000/svg">
<rect x="8.56885" y="4.84045" width="50.921" height="20.2404" fill="#EB5835" stroke="#E32112"/>
<path d="M11.6628 31.0204L8.90454 27.4H28.5575L26.3164 31.0204H11.6628Z" fill="#F7B296" stroke="#EB5835"/>
<path d="M41.3538 30.8385L38.5955 27.2181H58.2484L56.0073 30.8385H41.3538Z" fill="#F7B296" stroke="#EB5835"/>
<circle cx="14.6343" cy="31.5046" r="3.5" fill="#EB5835"/>
<circle cx="44.3252" cy="31.3226" r="3.5" fill="#EB5835"/>
<circle cx="22.8276" cy="31.5046" r="3.5" fill="#EB5835"/>
<circle cx="52.5186" cy="31.3226" r="3.5" fill="#EB5835"/>
<rect x="21.8054" y="31.0205" width="2.04443" height="0.968384" fill="white"/>
<rect x="51.4963" y="30.8385" width="2.04443" height="0.968384" fill="white"/>
<rect x="13.6123" y="31.0205" width="2.04443" height="0.968384" fill="white"/>
<rect x="43.3032" y="30.8385" width="2.04443" height="0.968384" fill="white"/>
<rect x="6.51343" y="25.1672" width="54.1947" height="3.18713" fill="#F18863" stroke="#EB5835"/>
<rect x="1.30542" y="9.4491" width="15" height="11" fill="#EB5835"/>
<rect x="1.30542" y="9.4491" width="15" height="11" stroke="#E32112"/>
<path d="M9.30542 12.1991V18.9491H8.32542V14.6991C8.32542 14.3458 8.35209 14.0558 8.40542 13.8291L8.37542 13.8091C8.30875 13.9224 8.18542 14.0258 8.00542 14.1191L7.15542 14.5791V13.5991L8.39542 12.7291L8.56542 12.1991H9.30542Z" fill="white"/>
</svg>
