<svg width="249" height="37" viewBox="0 0 249 37" fill="none" xmlns="http://www.w3.org/2000/svg">
<mask id="path-1-inside-1_341_56532" fill="white">
<path d="M0.5 3.08044C0.5 1.42359 1.84315 0.0804443 3.5 0.0804443H245.5C247.157 0.0804443 248.5 1.42359 248.5 3.08044V33.0804C248.5 34.7373 247.157 36.0804 245.5 36.0804H3.5C1.84314 36.0804 0.5 34.7373 0.5 33.0804V3.08044Z"/>
</mask>
<path d="M0.5 3.08044C0.5 1.42359 1.84315 0.0804443 3.5 0.0804443H245.5C247.157 0.0804443 248.5 1.42359 248.5 3.08044V33.0804C248.5 34.7373 247.157 36.0804 245.5 36.0804H3.5C1.84314 36.0804 0.5 34.7373 0.5 33.0804V3.08044Z" fill="#E8E6ED"/>
<path d="M0.5 0.0804443H248.5H0.5ZM248.5 36.0804H0.5H248.5ZM3.5 36.0804C0.738576 36.0804 -1.5 33.8419 -1.5 31.0804V5.08044C-1.5 2.31902 0.738576 0.0804443 3.5 0.0804443C2.94772 0.0804443 2.5 1.42359 2.5 3.08044V33.0804C2.5 34.7373 2.94772 36.0804 3.5 36.0804ZM248.5 0.0804443V36.0804V0.0804443Z" fill="#0B2C62" mask="url(#path-1-inside-1_341_56532)"/>
<defs>
<clipPath id="clip0_341_56532">
<rect width="224" height="15" fill="white" transform="translate(10.5 10.5804)"/>
</clipPath>
</defs>
</svg>
