<svg xmlns="http://www.w3.org/2000/svg" width="25" height="24" viewBox="0 0 25 24" fill="none">
<g clip-path="url(#clip0_2945_1934)">
<path fill-rule="evenodd" clip-rule="evenodd" d="M1.79939 0.293137C1.40887 -0.097387 0.775703 -0.097387 0.385179 0.293137C-0.00534579 0.683662 -0.00534579 1.31683 0.385179 1.70735L4.66076 5.98294C2.85198 7.53991 1.34264 9.41875 0.21113 11.5274C0.0574957 11.8137 0.0525465 12.1568 0.197858 12.4475L0.198655 12.4491L0.199824 12.4514L0.203275 12.4582L0.214623 12.4804C0.22416 12.499 0.237642 12.5249 0.255039 12.5578C0.289825 12.6235 0.340309 12.717 0.406257 12.8343C0.538077 13.0686 0.732135 13.3987 0.986621 13.7928C1.49435 14.5789 2.24912 15.6297 3.23775 16.6842C5.19677 18.7738 8.19278 21.0002 12.0923 21.0002L12.1086 21.0001C14.1771 20.9663 16.1885 20.3538 17.9184 19.2405L22.3852 23.7074C22.7757 24.0979 23.4089 24.0979 23.7994 23.7074C24.1899 23.3168 24.1899 22.6837 23.7994 22.2931L1.79939 0.293137ZM16.4637 17.7859L14.142 15.4642C13.9833 15.5637 13.8174 15.6522 13.6454 15.7288C13.1548 15.9474 12.6251 16.065 12.088 16.0745C11.5509 16.0839 11.0174 15.9851 10.5194 15.784C10.0213 15.5828 9.56886 15.2833 9.18902 14.9035C8.80919 14.5237 8.50975 14.0712 8.30857 13.5732C8.1074 13.0751 8.0086 12.5416 8.01807 12.0045C8.02755 11.4674 8.14511 10.9378 8.36373 10.4471C8.44034 10.2752 8.52881 10.1093 8.62833 9.9505L6.07938 7.40156C4.5426 8.70162 3.24163 10.2584 2.23486 12.0034C2.34393 12.1918 2.48821 12.4313 2.6667 12.7077C3.12772 13.4216 3.81045 14.3708 4.69682 15.3163C6.48623 17.225 8.9874 18.9971 12.0841 19.0002C13.6296 18.9736 15.136 18.5527 16.4637 17.7859ZM10.1202 11.4424C10.056 11.6348 10.0214 11.8362 10.0178 12.0398C10.013 12.3083 10.0624 12.5751 10.163 12.8241C10.2636 13.0732 10.4133 13.2994 10.6032 13.4893C10.7932 13.6792 11.0194 13.8289 11.2684 13.9295C11.5174 14.0301 11.7842 14.0795 12.0527 14.0748C12.2563 14.0712 12.4577 14.0365 12.6502 13.9724L10.1202 11.4424Z" fill="#B1ADC2"/>
<path fill-rule="evenodd" clip-rule="evenodd" d="M10.2202 5.21393C10.8331 5.07047 11.4605 4.99876 12.0899 5.00024L12.0923 5.00025C15.1928 5.00025 17.6968 6.77381 19.4877 8.68419C20.3741 9.62965 21.0568 10.5789 21.5179 11.2928C21.6967 11.5696 21.8411 11.8095 21.9503 11.998C21.4329 12.8984 20.8362 13.7513 20.1671 14.5464C19.8115 14.969 19.8659 15.5998 20.2884 15.9554C20.711 16.311 21.3419 16.2567 21.6974 15.8341C22.5713 14.7956 23.3344 13.6686 23.9742 12.4717C24.1271 12.1856 24.115 11.8102 23.9699 11.5201C23.9604 11.5015 23.9469 11.4756 23.9295 11.4427C23.8947 11.3769 23.8443 11.2835 23.7783 11.1662C23.6465 10.9319 23.4524 10.6018 23.1979 10.2077C22.6902 9.42156 21.9354 8.37084 20.9468 7.31631C18.988 5.22689 15.9924 3.00069 12.0934 3.00025C11.3094 2.9985 10.5278 3.08787 9.76437 3.26656C9.22662 3.39244 8.89273 3.93041 9.0186 4.46816C9.14448 5.00591 9.68245 5.3398 10.2202 5.21393ZM12.0934 3.00025H12.0923L12.0946 3.00025L12.0934 3.00025Z" fill="#B1ADC2"/>
</g>
<defs>
<clipPath id="clip0_2945_1934">
<rect width="24" height="24" fill="white" transform="translate(0.0922852 0.000244141)"/>
</clipPath>
</defs>
</svg>