<?xml version="1.0" ?><svg id="Layer_1" style="enable-background:new 0 0 32 32;" version="1.1" viewBox="0 0 32 32" xml:space="preserve" xmlns="http://www.w3.org/2000/svg" xmlns:xlink="http://www.w3.org/1999/xlink"><g><g><path d="M30.9990234,11.03125c-0.1757813,0-0.3535156-0.0458984-0.5146484-0.1430664L16,2.1674805L1.515625,10.8881836    c-0.4726563,0.2841797-1.0869141,0.1323242-1.3725586-0.3413086c-0.284668-0.4731445-0.1318359-1.0874023,0.3413086-1.3725586    l15-9.03125c0.3173828-0.1904297,0.7138672-0.1904297,1.03125,0l15,9.03125    c0.4731445,0.2851563,0.6259766,0.8994141,0.3413086,1.3725586C31.6689453,10.8588867,31.3383789,11.03125,30.9990234,11.03125z"/></g><g><path d="M20,32h-8c-0.5522461,0-1-0.4477539-1-1V19c0-0.5522461,0.4477539-1,1-1h8c0.5522461,0,1,0.4477539,1,1v12    C21,31.5522461,20.5522461,32,20,32z M13,30h6V20h-6V30z"/></g><g><path d="M27.0009766,32H5c-0.5522461,0-1-0.4477539-1-1V7.6230469c0-0.5522461,0.4477539-1,1-1s1,0.4477539,1,1V30h20.0009766    V7.6230469c0-0.5522461,0.4477539-1,1-1s1,0.4477539,1,1V31C28.0009766,31.5522461,27.5532227,32,27.0009766,32z"/></g></g></svg>