<svg width="16" height="17" viewBox="0 0 16 17" fill="none" xmlns="http://www.w3.org/2000/svg">
<g id="information-stroke">
<circle id="Ellipse" cx="8" cy="8.08044" r="6.85" fill="white" stroke="#0B2C62" stroke-width="1.3"/>
<path id="Union" fill-rule="evenodd" clip-rule="evenodd" d="M7.99998 5.38044C8.6351 5.38044 9.14998 4.86557 9.14998 4.23044C9.14998 3.59532 8.6351 3.08044 7.99998 3.08044C7.36485 3.08044 6.84998 3.59532 6.84998 4.23044C6.84998 4.86557 7.36485 5.38044 7.99998 5.38044ZM8.9 7.38044C8.9 6.88339 8.49706 6.48044 8 6.48044C7.50294 6.48044 7.1 6.88339 7.1 7.38044L7.1 11.9448C7.1 12.4419 7.50294 12.8448 8 12.8448C8.49706 12.8448 8.9 12.4419 8.9 11.9448V7.38044Z" fill="#15386C"/>
</g>
</svg>
