<svg xmlns="http://www.w3.org/2000/svg" width="113" height="18" viewBox="0 0 113 18" fill="none">
<path d="M18.2418 -0.000244141H0.829102V3.57061H18.2418V-0.000244141Z" fill="#FCB53B"/>
<path d="M18.2418 7.21387H0.829102V10.7847H18.2418V7.21387Z" fill="#F57F29"/>
<path d="M18.2418 14.4287H0.829102V17.9996H18.2418V14.4287Z" fill="#E32213"/>
<path d="M25.2205 -0.000244141V17.9998H39.5313V14.4289H28.6748V10.7852H39.5313V7.21433H28.6748V3.57061H39.5313V-0.000244141H25.2205Z" fill="black"/>
<path fill-rule="evenodd" clip-rule="evenodd" d="M83.2398 -0.000244141L76.5426 17.9998H80.5609L81.9003 14.356H90.0074L91.3469 17.9269H95.2947L88.1745 -0.000244141H83.2398ZM85.9186 3.57061L88.668 10.7852H83.1693L85.9186 3.57061Z" fill="black"/>
<path d="M97.6917 17.9994V14.2828H106.997C107.914 14.2828 108.689 13.4812 108.689 12.5339C108.689 11.5865 107.914 10.7849 106.997 10.7849H99.4541V7.21402H106.997C107.914 7.21402 108.689 6.4124 108.689 5.46503C108.689 4.51766 107.914 3.71604 106.997 3.71604H97.6917V0.0723178H107.138C109.958 0.0723178 112.355 2.47718 112.355 5.39216C112.355 6.77677 112.073 7.94276 110.24 9.03588C111.862 9.91037 112.355 11.295 112.355 12.6796C112.355 16.0318 109.958 17.9994 107.138 17.9994H97.6917Z" fill="black"/>
<path fill-rule="evenodd" clip-rule="evenodd" d="M71.7484 -0.000244141H62.1608V17.9998H65.6152V10.7852H71.7484C74.6387 10.7852 76.9651 8.38032 76.9651 5.39247C76.9651 2.40461 74.6387 -0.000244141 71.7484 -0.000244141ZM71.6074 7.21433H65.6152V3.64348H71.6074C72.5238 3.64348 73.2993 4.4451 73.2993 5.39247C73.2993 6.41271 72.5238 7.21433 71.6074 7.21433Z" fill="black"/>
<path fill-rule="evenodd" clip-rule="evenodd" d="M58.4249 5.31959C58.4249 6.70421 58.1429 7.8702 56.31 8.96332C57.9314 9.91069 58.5659 11.2953 58.6364 12.6799C58.6364 16.0321 56.2395 17.9998 53.4196 17.9998H43.6911V-0.000244141H53.2081C56.028 -0.000244141 58.4249 2.40461 58.4249 5.31959ZM52.9966 3.64348H47.1454V7.14146H52.9966C53.9131 7.14146 54.6886 6.33984 54.6886 5.39247C54.6886 4.4451 53.9131 3.64348 52.9966 3.64348ZM47.1454 14.356H53.2081C54.1951 14.356 54.9705 13.5544 54.9 12.5342C54.9 11.5868 54.1246 10.7852 53.2081 10.7852H47.1454V14.356Z" fill="black"/>
</svg>