<svg xmlns="http://www.w3.org/2000/svg" width="216" height="21" viewBox="0 0 216 21" fill="none">
<path fill-rule="evenodd" clip-rule="evenodd" d="M215.244 0.773438H199.97C199.375 0.773438 198.879 0.872447 198.384 1.16948C197.888 1.3675 197.392 1.76354 196.995 2.15958C196.598 2.55562 196.301 3.05066 196.102 3.54571C195.904 4.04076 195.706 4.63482 195.706 5.22888C195.706 5.62492 195.805 6.11997 195.904 6.51601C196.003 6.91205 196.202 7.30809 196.499 7.70413C196.202 8.00116 196.003 8.3972 195.805 8.89225C195.607 9.28829 195.607 9.68433 195.607 10.0804V14.8328H199.177V9.58532H211.574V14.8328H215.244V0.773438ZM211.574 5.92195H199.177V4.23878H211.574V5.92195Z" fill="#003B71"/>
<path fill-rule="evenodd" clip-rule="evenodd" d="M165.654 0.674572L159.604 4.23893C159.009 4.63497 158.414 4.932 158.017 5.32804C157.62 5.72408 157.323 6.12012 157.025 6.61517V0.575562H153.157V14.536H157.025V8.59537C157.224 9.09042 157.521 9.58546 157.918 9.88249C158.315 10.1795 158.711 10.5756 159.307 10.8726L165.654 14.437H172.993L160.893 7.50626L172.894 0.575562H165.654V0.674572Z" fill="#003B71"/>
<path fill-rule="evenodd" clip-rule="evenodd" d="M151.273 0.674438H136.694C134.909 0.674438 133.619 1.07048 132.727 1.96157C131.834 2.85266 131.437 4.13979 131.437 5.82295V10.4764C131.437 11.0705 131.537 11.6645 131.834 12.1596C132.132 12.6546 132.429 13.0507 132.925 13.4467C133.322 13.8428 133.818 14.1398 134.413 14.3378C135.008 14.5358 135.504 14.6348 136.099 14.6348H151.372V11.1695H135.107V4.2388H151.372V0.674438H151.273Z" fill="#003B71"/>
<path fill-rule="evenodd" clip-rule="evenodd" d="M108.528 14.6349H130.347V10.9716H128.859V5.03097C128.859 4.43691 128.76 3.84286 128.463 3.34781C128.165 2.85276 127.868 2.35771 127.372 2.06068C126.975 1.66464 126.479 1.36761 125.884 1.16959C125.289 0.971569 124.793 0.872559 124.099 0.872559H113.983C113.388 0.872559 112.792 0.971569 112.297 1.16959C111.701 1.36761 111.305 1.66464 110.809 2.06068C110.412 2.45672 110.015 2.85276 109.817 3.44682C109.619 3.94186 109.42 4.53593 109.42 5.12998V11.0706H108.429V14.6349H108.528ZM125.388 10.9716H112.792V4.43691H125.388V10.9716Z" fill="#003B71"/>
<path fill-rule="evenodd" clip-rule="evenodd" d="M175.771 20.0804H90.5764L92.1633 16.9121H172.795L179.54 4.04084C179.837 3.44678 180.135 2.85272 180.432 2.45668C180.73 1.96163 181.027 1.56559 181.424 1.16955C181.721 0.872524 182.118 0.575494 182.614 0.377474C183.011 0.179454 183.606 0.0804443 184.102 0.0804443C184.697 0.0804443 185.193 0.179454 185.589 0.377474C185.986 0.575494 186.383 0.773514 186.68 1.16955C186.184 0.971534 185.887 1.36757 185.49 1.96163L175.771 20.0804ZM0.12561 16.9121H20.358L27.1022 4.04084C27.3997 3.44678 27.6972 2.85272 27.9948 2.45668C28.2923 1.96163 28.5899 1.56559 28.9866 1.16955C29.2841 0.872524 29.6808 0.575494 30.1767 0.377474C30.5734 0.179454 31.1685 0.0804443 31.6644 0.0804443C32.2595 0.0804443 32.7553 0.179454 33.1521 0.377474C33.5488 0.575494 33.9455 0.773514 34.243 1.16955C33.7471 0.971534 33.4496 1.36757 33.0529 1.96163L23.3334 20.0804C15.5975 20.0804 7.86154 20.0804 0.12561 20.0804V16.9121ZM27.003 16.9121H85.5183L92.2625 4.04084C92.56 3.44678 92.8575 2.85272 93.1551 2.45668C93.4526 1.96163 93.7501 1.56559 94.1469 1.16955C94.4444 0.872524 94.8411 0.575494 95.337 0.377474C95.7337 0.179454 96.3288 0.0804443 96.8247 0.0804443C97.4197 0.0804443 97.9156 0.179454 98.3123 0.377474C98.7091 0.575494 99.1058 0.773514 99.4033 1.16955C98.9074 0.971534 98.6099 1.36757 98.2132 1.96163L88.4937 20.0804H25.5153L27.003 16.9121ZM179.54 16.9121H215.244V20.0804H177.953L179.54 16.9121Z" fill="#B2AFC4"/>
<path fill-rule="evenodd" clip-rule="evenodd" d="M194.416 14.635L188.267 3.05081C187.87 2.35774 187.275 2.35774 186.878 3.05081L180.729 14.635H194.416Z" fill="#003B71"/>
<path fill-rule="evenodd" clip-rule="evenodd" d="M68.658 14.7338V4.2388H81.3529V14.7338H85.0225V0.674438H64.9884V14.7338H68.658Z" fill="#003B71"/>
<path fill-rule="evenodd" clip-rule="evenodd" d="M62.7079 0.674438H48.1286C46.3434 0.674438 45.0541 1.07048 44.1615 1.96157C43.2689 2.85266 42.8722 4.13979 42.8722 5.82295V10.4764C42.8722 11.0705 42.9714 11.6645 43.2689 12.1596C43.5664 12.6546 43.864 13.0507 44.3599 13.4467C44.7566 13.8428 45.2525 14.1398 45.8475 14.3378C46.4426 14.5358 46.9385 14.6348 47.5336 14.6348H62.8071V11.1695H46.5418V4.2388H62.8071V0.674438H62.7079Z" fill="#003B71"/>
<path fill-rule="evenodd" clip-rule="evenodd" d="M41.8804 14.635L35.7313 3.05081C35.3346 2.35774 34.7395 2.35774 34.3428 3.05081L28.1937 14.635H41.8804Z" fill="#003B71"/>
<path fill-rule="evenodd" clip-rule="evenodd" d="M15.5975 0.674438H0.12561V14.6348H3.8944V9.48632H15.9942C16.5892 9.48632 17.1843 9.38731 17.7794 9.09028C18.3745 8.89226 18.8703 8.49622 19.2671 8.10018C19.6638 7.70414 20.0605 7.20909 20.2589 6.71404C20.4572 6.21899 20.6556 5.62493 20.6556 5.03087C20.6556 4.43681 20.5564 3.84276 20.2589 3.2487C19.9613 2.75365 19.6638 2.2586 19.1679 1.86256C18.672 1.46652 18.1761 1.16949 17.581 0.971468C16.8868 0.773449 16.2917 0.674438 15.5975 0.674438ZM3.8944 4.2388H16.8868V6.02097H3.8944V4.2388Z" fill="#003B71"/>
<path fill-rule="evenodd" clip-rule="evenodd" d="M107.041 14.635L100.892 3.05081C100.495 2.35774 99.8998 2.35774 99.5031 3.05081L93.354 14.635H107.041Z" fill="#003B71"/>
</svg>