<svg width="19" height="19" viewBox="0 0 19 19" fill="none" xmlns="http://www.w3.org/2000/svg">
<g id="icons / search">
<path id="icon" fill-rule="evenodd" clip-rule="evenodd" d="M8.70312 3.08044C5.80363 3.08044 3.45312 5.43095 3.45312 8.33044C3.45312 11.2299 5.80363 13.5804 8.70312 13.5804C10.1176 13.5804 11.4014 13.0211 12.3454 12.1115C12.3652 12.0858 12.3868 12.0611 12.4103 12.0376C12.4338 12.0141 12.4585 11.9925 12.4842 11.9727C13.3938 11.0287 13.9531 9.7449 13.9531 8.33044C13.9531 5.43095 11.6026 3.08044 8.70312 3.08044ZM13.977 12.5437C14.9008 11.389 15.4531 9.9242 15.4531 8.33044C15.4531 4.60252 12.431 1.58044 8.70312 1.58044C4.9752 1.58044 1.95312 4.60252 1.95312 8.33044C1.95312 12.0584 4.9752 15.0804 8.70312 15.0804C10.2969 15.0804 11.7616 14.5281 12.9164 13.6044L15.6728 16.3608C15.9657 16.6537 16.4406 16.6537 16.7335 16.3608C17.0263 16.0679 17.0263 15.593 16.7335 15.3001L13.977 12.5437Z" fill="#C7C7CD"/>
</g>
</svg>
