<svg width="21" height="20" viewBox="0 0 21 20" fill="none" xmlns="http://www.w3.org/2000/svg">
<g id="train (3) 1" clip-path="url(#clip0_3188_692)">
<g id="Group">
<g id="Group_2">
<path id="Vector" d="M15.9282 5.61828C15.82 5.59023 15.6056 5.53674 15.6056 5.53674L15.605 3.15164C15.605 2.64399 15.188 2.17764 14.4497 1.9886C13.7404 1.80702 13.1738 1.65059 12.1002 1.57974C12.2806 1.42308 12.3952 1.19262 12.3952 0.934911C12.3952 0.463055 12.0125 0.0804443 11.5405 0.0804443C11.0687 0.0804443 10.6861 0.463007 10.6861 0.934911C10.6861 1.17036 10.7814 1.38342 10.9353 1.538H10.0645C10.2185 1.38342 10.3138 1.17036 10.3138 0.934911C10.3138 0.463055 9.93132 0.0804443 9.45932 0.0804443C8.98737 0.0804443 8.60485 0.463007 8.60485 0.934911C8.60485 1.19257 8.71935 1.42308 8.89979 1.57974C7.82608 1.65059 7.25961 1.80702 6.5503 1.9886C5.81204 2.17764 5.39496 2.64399 5.39496 3.15164L5.39429 5.53674C5.39429 5.53674 5.17995 5.59023 5.07178 5.61828C4.81417 5.68509 4.6344 5.9175 4.6344 6.18357V13.4062C4.6344 13.7287 4.89581 13.9902 5.21832 13.9902H15.7814C16.104 13.9902 16.3654 13.7287 16.3654 13.4062V6.18352C16.3655 5.9175 16.1857 5.68504 15.9282 5.61828ZM6.73868 3.33033C7.71787 3.08784 8.71283 2.93973 9.70229 2.88899V4.75265C8.71317 4.8019 7.71858 4.94573 6.73868 5.18114V3.33033ZM10.5195 8.54176H10.4806C9.79115 8.54176 9.23024 7.98084 9.23024 7.29127C9.23024 6.60179 9.79115 6.04083 10.4806 6.04083H10.5195C11.209 6.04083 11.7699 6.60179 11.7699 7.29127C11.7699 7.98084 11.209 8.54176 10.5195 8.54176ZM14.2614 5.18114C13.2816 4.94569 12.2869 4.8019 11.2978 4.75265V2.88899C12.2873 2.93973 13.2821 3.08784 14.2614 3.33033V5.18114Z" fill="#B1ADC2"/>
<path id="Vector_2" d="M11.7917 16.7526H10.5001H9.20846L8.86987 17.7045C9.4073 17.7502 9.94467 17.7737 10.4806 17.7737H10.5195C11.0554 17.7737 11.5929 17.7502 12.1303 17.7045L11.7917 16.7526Z" fill="#B1ADC2"/>
<path id="Vector_3" d="M15.7873 16.6358V15.1617C15.7873 14.871 15.5517 14.6355 15.2611 14.6355H5.73856C5.448 14.6355 5.2124 14.8711 5.2124 15.1617V16.6358C5.2124 16.8755 5.37454 17.085 5.60652 17.1451C5.75453 17.1834 5.90302 17.2196 6.05151 17.2545L5.41257 18.7028C5.27317 19.0187 5.41619 19.3878 5.73214 19.5271C5.81425 19.5634 5.89993 19.5805 5.98428 19.5805C6.22444 19.5805 6.45343 19.4413 6.5566 19.2075L7.30675 17.5069C7.48719 17.5371 7.66782 17.5649 7.84855 17.59L8.38402 16.0848C8.45487 15.8854 8.64368 15.7522 8.85521 15.7522H12.1444C12.356 15.7522 12.5448 15.8854 12.6157 16.0848L13.1511 17.59C13.3318 17.5649 13.5125 17.5371 13.6929 17.5069L14.443 19.2075C14.5462 19.4413 14.7752 19.5805 15.0154 19.5805C15.0996 19.5805 15.1854 19.5634 15.2675 19.5271C15.5835 19.3877 15.7264 19.0187 15.5872 18.7028L14.9483 17.2544C15.0967 17.2196 15.2451 17.1834 15.3932 17.145C15.6251 17.085 15.7873 16.8755 15.7873 16.6358Z" fill="#B1ADC2"/>
</g>
</g>
</g>
<defs>
<clipPath id="clip0_3188_692">
<rect width="19.5" height="19.5" fill="white" transform="translate(0.75 0.0804443)"/>
</clipPath>
</defs>
</svg>
