<svg width="62" height="36" viewBox="0 0 62 36" fill="none" xmlns="http://www.w3.org/2000/svg">
<g opacity="0.5">
<path d="M11.5234 31.1589L8.76514 27.5386H28.4181L26.177 31.1589H11.5234Z" fill="#E8E6ED" stroke="#B1ADC2"/>
<path d="M41.2144 30.9771L38.4561 27.3567H58.109L55.8679 30.9771H41.2144Z" fill="#E8E6ED" stroke="#B1ADC2"/>
<circle cx="14.4951" cy="31.6432" r="3" fill="#B1ADC2" stroke="#B1ADC2"/>
<circle cx="44.186" cy="31.4612" r="3" fill="#B1ADC2" stroke="#B1ADC2"/>
<circle cx="22.6882" cy="31.6432" r="3" fill="#B1ADC2" stroke="#B1ADC2"/>
<circle cx="52.3792" cy="31.4612" r="3" fill="#B1ADC2" stroke="#B1ADC2"/>
<rect x="21.666" y="31.1591" width="2.04443" height="0.968384" fill="white"/>
<rect x="51.3569" y="30.9771" width="2.04443" height="0.968384" fill="white"/>
<rect x="13.4727" y="31.1591" width="2.04443" height="0.968384" fill="white"/>
<rect x="43.1636" y="30.9771" width="2.04443" height="0.968384" fill="white"/>
<rect x="6.37402" y="25.3058" width="54.1947" height="3.18713" fill="#E8E6ED" stroke="#B1ADC2"/>
<rect x="14.9585" y="10.8366" width="14.6898" height="1.11673" transform="rotate(100.267 14.9585 10.8366)" fill="#B1ADC2"/>
<path d="M11.8599 8.2793V4.78778H56.9002V8.2793H55.7364V11.1889H53.5251V23.06C50.4603 23.6419 42.4221 24.8058 34.7873 24.8058C27.1526 24.8058 18.416 23.6419 15.0021 23.06V11.1889H12.7908V8.2793H11.8599Z" fill="white" stroke="#B1ADC2"/>
<rect width="14.2979" height="1.11673" transform="matrix(-0.178232 -0.983988 -0.983988 0.178232 57.2876 25.1848)" fill="#B1ADC2"/>
<rect x="0.971191" y="9.59924" width="15" height="11" fill="#E8E6ED"/>
<rect x="0.971191" y="9.59924" width="15" height="11" stroke="#B1ADC2"/>
<path d="M8.97119 12.3492V19.0992H7.99119V14.8492C7.99119 14.4959 8.01786 14.2059 8.07119 13.9792L8.04119 13.9592C7.97452 14.0726 7.85119 14.1759 7.67119 14.2692L6.82119 14.7292V13.7492L8.06119 12.8792L8.23119 12.3492H8.97119Z" fill="#2F2E34"/>
</g>
</svg>
