<svg width="62" height="36" viewBox="0 0 62 36" fill="none" xmlns="http://www.w3.org/2000/svg">
<g opacity="0.5">
<path d="M8.74072 9.026C8.74072 6.54072 10.7554 4.526 13.2407 4.526H55.1617C57.647 4.526 59.6617 6.54072 59.6617 9.026V25.6127H8.74072V9.026Z" fill="white" stroke="#B1ADC2"/>
<path d="M11.8347 31.5522L9.07642 27.9319H28.7294L26.4883 31.5522H11.8347Z" fill="#E8E6ED" stroke="#B1ADC2"/>
<path d="M41.5256 31.3704L38.7673 27.75H58.4203L56.1792 31.3704H41.5256Z" fill="#E8E6ED" stroke="#B1ADC2"/>
<circle cx="14.8062" cy="32.0365" r="3" fill="#B1ADC2" stroke="#B1ADC2"/>
<circle cx="44.4971" cy="31.8545" r="3" fill="#B1ADC2" stroke="#B1ADC2"/>
<circle cx="22.9995" cy="32.0365" r="3" fill="#B1ADC2" stroke="#B1ADC2"/>
<circle cx="52.6904" cy="31.8545" r="3" fill="#B1ADC2" stroke="#B1ADC2"/>
<rect x="21.9773" y="31.5524" width="2.04443" height="0.968384" fill="white"/>
<rect x="51.6682" y="31.3704" width="2.04443" height="0.968384" fill="white"/>
<rect x="13.7842" y="31.5524" width="2.04443" height="0.968384" fill="white"/>
<rect x="43.4751" y="31.3704" width="2.04443" height="0.968384" fill="white"/>
<rect x="6.6853" y="25.6991" width="54.1947" height="3.18713" fill="#E8E6ED" stroke="#B1ADC2"/>
<rect x="1.28271" y="9.99255" width="15" height="11" fill="#E8E6ED"/>
<rect x="1.28271" y="9.99255" width="15" height="11" stroke="#B1ADC2"/>
<path d="M9.28271 12.7426V19.4926H8.30271V15.2426C8.30271 14.8892 8.32938 14.5992 8.38271 14.3726L8.35271 14.3526C8.28605 14.4659 8.16271 14.5692 7.98271 14.6626L7.13271 15.1226V14.1426L8.37271 13.2726L8.54271 12.7426H9.28271Z" fill="#2F2E34"/>
</g>
</svg>
