<svg width="61" height="36" viewBox="0 0 61 36" fill="none" xmlns="http://www.w3.org/2000/svg">
<rect x="8.16602" y="15.1716" width="50.921" height="9.63171" fill="white" stroke="#B1ADC2"/>
<rect x="0.708008" y="8.18323" width="15" height="11" fill="#E8E6ED"/>
<rect x="0.708008" y="8.18323" width="15" height="11" stroke="#B1ADC2"/>
<path d="M8.70801 10.9332V17.6832H7.72801V13.4332C7.72801 13.0799 7.75467 12.7899 7.80801 12.5632L7.77801 12.5432C7.71134 12.6566 7.58801 12.7599 7.40801 12.8532L6.55801 13.3132V12.3332L7.79801 11.4632L7.96801 10.9332H8.70801Z" fill="#2F2E34"/>
<path d="M11.4614 31.1382L8.70312 27.5178H28.3561L26.115 31.1382H11.4614Z" fill="#F7B296" stroke="#EB5835"/>
<path d="M41.1523 30.9563L38.394 27.3359H58.047L55.8059 30.9563H41.1523Z" fill="#F7B296" stroke="#EB5835"/>
<circle cx="14.4331" cy="31.6224" r="3.5" fill="#EB5835"/>
<circle cx="44.124" cy="31.4404" r="3.5" fill="#EB5835"/>
<circle cx="22.6262" cy="31.6224" r="3.5" fill="#EB5835"/>
<circle cx="52.3171" cy="31.4404" r="3.5" fill="#EB5835"/>
<rect x="21.604" y="31.1383" width="2.04443" height="0.968384" fill="white"/>
<rect x="51.2949" y="30.9563" width="2.04443" height="0.968384" fill="white"/>
<rect x="13.4106" y="31.1383" width="2.04443" height="0.968384" fill="white"/>
<rect x="43.1016" y="30.9563" width="2.04443" height="0.968384" fill="white"/>
<rect x="6.31201" y="25.285" width="54.1947" height="3.18713" fill="#F18863" stroke="#EB5835"/>
</svg>
