<svg width="61" height="36" viewBox="0 0 61 36" fill="none" xmlns="http://www.w3.org/2000/svg">
<rect x="8.36621" y="14.4409" width="50.921" height="9.63171" fill="white" stroke="#B1ADC2"/>
<path d="M11.4609 31.0752L8.70264 27.4548H28.3556L26.1145 31.0752H11.4609Z" fill="#F7B296" stroke="#EB5835"/>
<path d="M41.1519 30.8933L38.3936 27.2729H58.0465L55.8054 30.8933H41.1519Z" fill="#F7B296" stroke="#EB5835"/>
<circle cx="14.4326" cy="31.5594" r="3.5" fill="#EB5835"/>
<circle cx="44.1235" cy="31.3774" r="3.5" fill="#EB5835"/>
<circle cx="22.6257" cy="31.5594" r="3.5" fill="#EB5835"/>
<circle cx="52.3167" cy="31.3774" r="3.5" fill="#EB5835"/>
<rect x="21.6035" y="31.0753" width="2.04443" height="0.968384" fill="white"/>
<rect x="51.2944" y="30.8933" width="2.04443" height="0.968384" fill="white"/>
<rect x="13.4102" y="31.0753" width="2.04443" height="0.968384" fill="white"/>
<rect x="43.1011" y="30.8933" width="2.04443" height="0.968384" fill="white"/>
<rect x="6.31152" y="25.222" width="54.1947" height="3.18713" fill="#F18863" stroke="#EB5835"/>
<circle cx="18.4321" cy="23.4965" r="3" fill="#B1ADC2" stroke="#B1ADC2"/>
<rect x="17.4097" y="23.0123" width="2.04443" height="0.968384" fill="white"/>
<circle cx="33.123" cy="23.3145" r="3" fill="#B1ADC2" stroke="#B1ADC2"/>
<rect x="32.1006" y="22.8303" width="2.04443" height="0.968384" fill="white"/>
<circle cx="48.3159" cy="23.3145" r="3" fill="#B1ADC2" stroke="#B1ADC2"/>
<rect x="47.2939" y="22.8303" width="2.04443" height="0.968384" fill="white"/>
<rect x="0.908203" y="7.45251" width="15" height="11" fill="#E8E6ED"/>
<rect x="0.908203" y="7.45251" width="15" height="11" stroke="#B1ADC2"/>
<path d="M8.9082 10.2025V16.9525H7.9282V12.7025C7.9282 12.3492 7.95487 12.0592 8.0082 11.8325L7.9782 11.8125C7.91154 11.9258 7.7882 12.0292 7.6082 12.1225L6.7582 12.5825V11.6025L7.9982 10.7325L8.1682 10.2025H8.9082Z" fill="#2F2E34"/>
</svg>
