<svg width="62" height="36" viewBox="0 0 62 36" fill="none" xmlns="http://www.w3.org/2000/svg">
<rect x="8.56836" y="4.86658" width="50.921" height="20.2404" fill="white" stroke="#B1ADC2"/>
<rect x="1.30469" y="10.4752" width="15" height="11" fill="#E8E6ED"/>
<rect x="1.30469" y="10.4752" width="15" height="11" stroke="#B1ADC2"/>
<path d="M9.30469 13.2252V19.9752H8.32469V15.7252C8.32469 15.3719 8.35135 15.0819 8.40469 14.8552L8.37469 14.8352C8.30802 14.9486 8.18469 15.0519 8.00469 15.1452L7.15469 15.6052V14.6252L8.39469 13.7552L8.56469 13.2252H9.30469Z" fill="#2F2E34"/>
<path d="M11.6626 31.5334L8.9043 27.9131H28.5573L26.3161 31.5334H11.6626Z" fill="#F7B296" stroke="#EB5835"/>
<path d="M41.3535 31.3516L38.5952 27.7312H58.2482L56.0071 31.3516H41.3535Z" fill="#F7B296" stroke="#EB5835"/>
<circle cx="14.6343" cy="32.0177" r="3.5" fill="#EB5835"/>
<circle cx="44.3252" cy="31.8357" r="3.5" fill="#EB5835"/>
<circle cx="22.8274" cy="32.0177" r="3.5" fill="#EB5835"/>
<circle cx="52.5183" cy="31.8357" r="3.5" fill="#EB5835"/>
<rect x="21.8052" y="31.5336" width="2.04443" height="0.968384" fill="white"/>
<rect x="51.4961" y="31.3516" width="2.04443" height="0.968384" fill="white"/>
<rect x="13.6118" y="31.5336" width="2.04443" height="0.968384" fill="white"/>
<rect x="43.3027" y="31.3516" width="2.04443" height="0.968384" fill="white"/>
<rect x="6.51318" y="25.6803" width="54.1947" height="3.18713" fill="#F18863" stroke="#EB5835"/>
</svg>
