<svg width="61" height="36" viewBox="0 0 61 36" fill="none" xmlns="http://www.w3.org/2000/svg">
<rect x="14.8828" y="10.7318" width="14.6898" height="1.11673" transform="rotate(100.267 14.8828 10.7318)" fill="#B1ADC2"/>
<path d="M11.7842 8.1745V4.68298H56.8245V8.1745H55.6607V11.0841H53.4494V22.9552C50.3846 23.5371 42.3464 24.701 34.7116 24.701C27.0769 24.701 18.3403 23.5371 14.9264 22.9552V11.0841H12.7151V8.1745H11.7842Z" fill="white" stroke="#B1ADC2"/>
<rect width="14.2979" height="1.11673" transform="matrix(-0.178232 -0.983988 -0.983988 0.178232 57.2119 25.08)" fill="#B1ADC2"/>
<rect x="0.895508" y="8.49445" width="15" height="11" fill="#E8E6ED"/>
<rect x="0.895508" y="8.49445" width="15" height="11" stroke="#B1ADC2"/>
<path d="M8.89551 11.2444V17.9944H7.91551V13.7444C7.91551 13.3911 7.94217 13.1011 7.99551 12.8744L7.96551 12.8544C7.89884 12.9678 7.77551 13.0711 7.59551 13.1644L6.74551 13.6244V12.6444L7.98551 11.7744L8.15551 11.2444H8.89551Z" fill="#2F2E34"/>
<path d="M11.4546 31.5962L8.69629 27.9758H28.3493L26.1081 31.5962H11.4546Z" fill="#F7B296" stroke="#EB5835"/>
<path d="M41.1455 31.4143L38.3872 27.7939H58.0402L55.7991 31.4143H41.1455Z" fill="#F7B296" stroke="#EB5835"/>
<circle cx="14.4263" cy="32.0804" r="3.5" fill="#EB5835"/>
<circle cx="44.1172" cy="31.8984" r="3.5" fill="#EB5835"/>
<circle cx="22.6194" cy="32.0804" r="3.5" fill="#EB5835"/>
<circle cx="52.3103" cy="31.8984" r="3.5" fill="#EB5835"/>
<rect x="21.5972" y="31.5963" width="2.04443" height="0.968384" fill="white"/>
<rect x="51.2881" y="31.4143" width="2.04443" height="0.968384" fill="white"/>
<rect x="13.4038" y="31.5963" width="2.04443" height="0.968384" fill="white"/>
<rect x="43.0947" y="31.4143" width="2.04443" height="0.968384" fill="white"/>
<rect x="6.30518" y="25.743" width="54.1947" height="3.18713" fill="#F18863" stroke="#EB5835"/>
</svg>
