<svg width="61" height="36" viewBox="0 0 61 36" fill="none" xmlns="http://www.w3.org/2000/svg">
<path d="M8.35352 7.52795C8.35352 5.04267 10.3682 3.02795 12.8535 3.02795H54.7745C57.2598 3.02795 59.2745 5.04267 59.2745 7.52795V24.1146H8.35352V7.52795Z" fill="white" stroke="#B1ADC2"/>
<rect x="0.895508" y="7.49451" width="15" height="11" fill="#E8E6ED"/>
<rect x="0.895508" y="7.49451" width="15" height="11" stroke="#B1ADC2"/>
<path d="M8.89551 10.2445V16.9945H7.91551V12.7445C7.91551 12.3912 7.94217 12.1012 7.99551 11.8745L7.96551 11.8545C7.89884 11.9678 7.77551 12.0712 7.59551 12.1645L6.74551 12.6245V11.6445L7.98551 10.7745L8.15551 10.2445H8.89551Z" fill="#2F2E34"/>
<path d="M11.4546 31.0962L8.69629 27.4758H28.3493L26.1081 31.0962H11.4546Z" fill="#F7B296" stroke="#EB5835"/>
<path d="M41.1455 30.9143L38.3872 27.2939H58.0402L55.7991 30.9143H41.1455Z" fill="#F7B296" stroke="#EB5835"/>
<circle cx="14.4263" cy="31.5804" r="3.5" fill="#EB5835"/>
<circle cx="44.1172" cy="31.3984" r="3.5" fill="#EB5835"/>
<circle cx="22.6194" cy="31.5804" r="3.5" fill="#EB5835"/>
<circle cx="52.3103" cy="31.3984" r="3.5" fill="#EB5835"/>
<rect x="21.5972" y="31.0963" width="2.04443" height="0.968384" fill="white"/>
<rect x="51.2881" y="30.9143" width="2.04443" height="0.968384" fill="white"/>
<rect x="13.4038" y="31.0963" width="2.04443" height="0.968384" fill="white"/>
<rect x="43.0947" y="30.9143" width="2.04443" height="0.968384" fill="white"/>
<rect x="6.30518" y="25.243" width="54.1947" height="3.18713" fill="#F18863" stroke="#EB5835"/>
</svg>
