<svg width="61" height="36" viewBox="0 0 61 36" fill="none" xmlns="http://www.w3.org/2000/svg">
<rect x="8.35352" y="14.4409" width="50.921" height="9.63171" fill="white" stroke="#B1ADC2"/>
<rect x="0.895508" y="7.45251" width="15" height="11" fill="#E8E6ED"/>
<rect x="0.895508" y="7.45251" width="15" height="11" stroke="#B1ADC2"/>
<path d="M8.89551 10.2025V16.9525H7.91551V12.7025C7.91551 12.3492 7.94217 12.0592 7.99551 11.8325L7.96551 11.8125C7.89884 11.9258 7.77551 12.0292 7.59551 12.1225L6.74551 12.5825V11.6025L7.98551 10.7325L8.15551 10.2025H8.89551Z" fill="#2F2E34"/>
<path d="M11.4546 31.0752L8.69629 27.4548H28.3493L26.1081 31.0752H11.4546Z" fill="#F7B296" stroke="#EB5835"/>
<path d="M41.1455 30.8933L38.3872 27.2729H58.0402L55.7991 30.8933H41.1455Z" fill="#F7B296" stroke="#EB5835"/>
<circle cx="14.4263" cy="31.5594" r="3.5" fill="#EB5835"/>
<circle cx="44.1172" cy="31.3774" r="3.5" fill="#EB5835"/>
<circle cx="22.6194" cy="31.5594" r="3.5" fill="#EB5835"/>
<circle cx="52.3103" cy="31.3774" r="3.5" fill="#EB5835"/>
<rect x="21.5972" y="31.0753" width="2.04443" height="0.968384" fill="white"/>
<rect x="51.2881" y="30.8933" width="2.04443" height="0.968384" fill="white"/>
<rect x="13.4038" y="31.0753" width="2.04443" height="0.968384" fill="white"/>
<rect x="43.0947" y="30.8933" width="2.04443" height="0.968384" fill="white"/>
<rect x="6.30518" y="25.222" width="54.1947" height="3.18713" fill="#F18863" stroke="#EB5835"/>
</svg>
