<svg width="61" height="37" viewBox="0 0 61 37" fill="none" xmlns="http://www.w3.org/2000/svg">
<path d="M54.9445 8.23938C54.9445 9.05514 54.4655 9.90597 53.431 10.7486C52.4004 11.588 50.8787 12.3661 48.9541 13.0291C45.1098 14.3535 39.7665 15.1816 33.8411 15.1816C27.9157 15.1816 22.5725 14.3535 18.7281 13.0291C16.8035 12.3661 15.2818 11.588 14.2512 10.7486C13.2167 9.90597 12.7378 9.05514 12.7378 8.23938C12.7378 7.42362 13.2167 6.57279 14.2512 5.7302C15.2818 4.89079 16.8035 4.11265 18.7281 3.44964C22.5725 2.12528 27.9157 1.29712 33.8411 1.29712C39.7665 1.29712 45.1098 2.12528 48.9541 3.44964C50.8787 4.11265 52.4004 4.89079 53.431 5.7302C54.4655 6.57279 54.9445 7.42362 54.9445 8.23938Z" fill="#E8E6ED" stroke="#B1ADC2"/>
<path d="M11.4614 32.0962L8.70312 28.4758H28.3561L26.115 32.0962H11.4614Z" fill="#E8E6ED" stroke="#B1ADC2"/>
<path d="M41.1523 31.9143L38.394 28.2939H58.047L55.8059 31.9143H41.1523Z" fill="#E8E6ED" stroke="#B1ADC2"/>
<circle cx="14.4331" cy="32.5804" r="3" fill="#B1ADC2" stroke="#B1ADC2"/>
<circle cx="44.124" cy="32.3984" r="3" fill="#B1ADC2" stroke="#B1ADC2"/>
<circle cx="22.6262" cy="32.5804" r="3" fill="#B1ADC2" stroke="#B1ADC2"/>
<circle cx="52.3171" cy="32.3984" r="3" fill="#B1ADC2" stroke="#B1ADC2"/>
<rect x="21.604" y="32.0963" width="2.04443" height="0.968384" fill="white"/>
<rect x="51.2949" y="31.9143" width="2.04443" height="0.968384" fill="white"/>
<rect x="13.4106" y="32.0963" width="2.04443" height="0.968384" fill="white"/>
<rect x="43.1016" y="31.9143" width="2.04443" height="0.968384" fill="white"/>
<rect x="6.31201" y="26.243" width="54.1947" height="3.18713" fill="#E8E6ED" stroke="#B1ADC2"/>
<rect x="14.8965" y="11.7739" width="14.6898" height="1.11673" transform="rotate(100.267 14.8965 11.7739)" fill="#B1ADC2"/>
<path d="M11.7979 9.21655V5.72504H56.8382V9.21655H55.6744V12.1261H53.4631V23.9973C50.3983 24.5792 42.3601 25.743 34.7253 25.743C27.0905 25.743 18.354 24.5792 14.9401 23.9973V12.1261H12.7288V9.21655H11.7979Z" fill="white" stroke="#B1ADC2"/>
<rect width="14.2979" height="1.11673" transform="matrix(-0.178232 -0.983988 -0.983988 0.178232 57.2256 26.122)" fill="#B1ADC2"/>
<rect x="0.90918" y="9.5365" width="15" height="11" fill="#E8E6ED"/>
<rect x="0.90918" y="9.5365" width="15" height="11" stroke="#B1ADC2"/>
<path d="M8.90918 12.2865V19.0365H7.92918V14.7865C7.92918 14.4332 7.95585 14.1432 8.00918 13.9165L7.97918 13.8965C7.91251 14.0098 7.78918 14.1132 7.60918 14.2065L6.75918 14.6665V13.6865L7.99918 12.8165L8.16918 12.2865H8.90918Z" fill="#2F2E34"/>
<path d="M25.306 17.1149C25.0326 17.1149 24.7493 17.0982 24.456 17.0649L24.466 16.0549C24.726 16.1016 24.9926 16.1249 25.266 16.1249C25.6793 16.1249 26.016 15.8416 26.276 15.2749L23.676 10.0249H24.916L26.396 13.2449C26.6493 13.7916 26.7926 14.1716 26.826 14.3849H26.866C26.906 14.0182 27.0126 13.6282 27.186 13.2149L28.606 10.0249H29.786L27.326 15.4549C27.086 16.0282 26.8026 16.4482 26.476 16.7149C26.156 16.9816 25.766 17.1149 25.306 17.1149ZM31.925 17.1749C31.1716 17.1749 30.5583 16.9482 30.085 16.4949C29.6183 16.0349 29.385 15.4416 29.385 14.7149C29.385 13.9882 29.6183 13.3982 30.085 12.9449C30.5583 12.4849 31.1716 12.2549 31.925 12.2549C32.505 12.2549 33.0316 12.4116 33.505 12.7249L33.045 13.5549C32.6916 13.3216 32.3083 13.2049 31.895 13.2049C31.4616 13.2049 31.1083 13.3449 30.835 13.6249C30.5616 13.9049 30.425 14.2682 30.425 14.7149C30.425 15.1616 30.5616 15.5249 30.835 15.8049C31.1083 16.0849 31.4616 16.2249 31.895 16.2249C32.3083 16.2249 32.6916 16.1082 33.045 15.8749L33.505 16.7049C33.0316 17.0182 32.505 17.1749 31.925 17.1749ZM37.9129 17.0549C37.3996 17.0549 37.0829 16.8549 36.9629 16.4549L36.7329 15.6349C36.6729 15.4016 36.5963 15.2382 36.5029 15.1449C36.4096 15.0516 36.2696 15.0049 36.0829 15.0049H35.6529C35.5263 15.0049 35.4229 14.9982 35.3429 14.9849L35.3329 14.9949C35.3663 15.1016 35.3829 15.2416 35.3829 15.4149V17.0249H34.4029V12.4049H35.3829V13.8349C35.3829 13.9949 35.3663 14.1282 35.3329 14.2349L35.3429 14.2449C35.4229 14.2316 35.5263 14.2249 35.6529 14.2249H36.0829C36.2763 14.2249 36.4129 14.1916 36.4929 14.1249C36.5729 14.0516 36.6563 13.8982 36.7429 13.6649L37.0829 12.8449C37.2096 12.5316 37.5096 12.3749 37.9829 12.3749H38.4729V13.2549H38.2629C38.1163 13.2549 38.0063 13.2782 37.9329 13.3249C37.8663 13.3716 37.8029 13.4649 37.7429 13.6049L37.5829 14.0249C37.4563 14.3982 37.1296 14.5882 36.6029 14.5949V14.6349C36.8963 14.6416 37.1163 14.6916 37.2629 14.7849C37.4163 14.8716 37.5229 15.0216 37.5829 15.2349L37.7729 15.8849C37.8129 16.0116 37.8596 16.0916 37.9129 16.1249C37.9729 16.1582 38.0829 16.1749 38.2429 16.1749H38.4929V17.0549H37.9129ZM41.2143 10.1249C41.921 10.1249 42.491 10.3549 42.9243 10.8149C43.3577 11.2749 43.5743 11.8816 43.5743 12.6349C43.5743 13.1282 43.4843 13.5849 43.3043 14.0049C43.131 14.4249 42.841 14.8716 42.4343 15.3449L41.0643 17.0249H39.8943L41.7643 14.7549C42.0977 14.3482 42.3177 14.0382 42.4243 13.8249L42.3843 13.8049C42.0243 14.3649 41.5343 14.6449 40.9143 14.6449C40.3277 14.6449 39.8343 14.4316 39.4343 14.0049C39.041 13.5782 38.8443 13.0482 38.8443 12.4149C38.8443 11.7416 39.0643 11.1916 39.5043 10.7649C39.9443 10.3382 40.5143 10.1249 41.2143 10.1249ZM41.1943 11.0249C40.7877 11.0249 40.4643 11.1482 40.2243 11.3949C39.9843 11.6416 39.8643 11.9749 39.8643 12.3949C39.8643 12.8082 39.981 13.1316 40.2143 13.3649C40.4543 13.5982 40.781 13.7149 41.1943 13.7149C41.621 13.7149 41.9543 13.5982 42.1943 13.3649C42.4343 13.1316 42.5543 12.8082 42.5543 12.3949C42.5543 11.9682 42.4343 11.6349 42.1943 11.3949C41.9543 11.1482 41.621 11.0249 41.1943 11.0249Z" fill="#2F2E34"/>
<rect width="34" height="1" transform="translate(17.7148 18.5804)" fill="#B1ADC2"/>
<rect width="34" height="2" transform="translate(17.7148 21.5804)" fill="#B1ADC2"/>
</svg>
