<svg width="61" height="36" viewBox="0 0 61 36" fill="none" xmlns="http://www.w3.org/2000/svg">
<path d="M8.36084 8.56995C8.36084 6.08466 10.3756 4.06995 12.8608 4.06995H54.7819C57.2671 4.06995 59.2819 6.08467 59.2819 8.56995V25.1566H8.36084V8.56995Z" fill="white" stroke="#B1ADC2"/>
<path d="M11.4548 31.0962L8.69653 27.4758H28.3495L26.1084 31.0962H11.4548Z" fill="#E8E6ED" stroke="#B1ADC2"/>
<path d="M41.1458 30.9143L38.3875 27.2939H58.0404L55.7993 30.9143H41.1458Z" fill="#E8E6ED" stroke="#B1ADC2"/>
<circle cx="14.4263" cy="31.5804" r="3" fill="#B1ADC2" stroke="#B1ADC2"/>
<circle cx="44.1172" cy="31.3984" r="3" fill="#B1ADC2" stroke="#B1ADC2"/>
<circle cx="22.6196" cy="31.5804" r="3" fill="#B1ADC2" stroke="#B1ADC2"/>
<circle cx="52.3105" cy="31.3984" r="3" fill="#B1ADC2" stroke="#B1ADC2"/>
<rect x="21.5974" y="31.0963" width="2.04443" height="0.968384" fill="white"/>
<rect x="51.2883" y="30.9143" width="2.04443" height="0.968384" fill="white"/>
<rect x="13.4043" y="31.0963" width="2.04443" height="0.968384" fill="white"/>
<rect x="43.0952" y="30.9143" width="2.04443" height="0.968384" fill="white"/>
<rect x="6.30542" y="25.243" width="54.1947" height="3.18713" fill="#E8E6ED" stroke="#B1ADC2"/>
<rect x="0.902832" y="9.5365" width="15" height="11" fill="#E8E6ED"/>
<rect x="0.902832" y="9.5365" width="15" height="11" stroke="#B1ADC2"/>
<path d="M8.90283 12.2865V19.0365H7.92283V14.7865C7.92283 14.4332 7.9495 14.1432 8.00283 13.9165L7.97283 13.8965C7.90617 14.0098 7.78283 14.1132 7.60283 14.2065L6.75283 14.6665V13.6865L7.99283 12.8165L8.16283 12.2865H8.90283Z" fill="#2F2E34"/>
<rect width="34" height="1" transform="translate(20.708 12.5804)" fill="#B1ADC2"/>
<rect width="34" height="2" transform="translate(20.708 15.5804)" fill="#B1ADC2"/>
</svg>
