<svg width="61" height="36" viewBox="0 0 61 36" fill="none" xmlns="http://www.w3.org/2000/svg">
<rect x="8.36719" y="15.5249" width="50.921" height="9.63171" fill="white" stroke="#B1ADC2"/>
<path d="M11.4614 31.0962L8.70312 27.4758H28.3561L26.115 31.0962H11.4614Z" fill="#E8E6ED" stroke="#B1ADC2"/>
<path d="M41.1523 30.9143L38.394 27.2939H58.047L55.8059 30.9143H41.1523Z" fill="#E8E6ED" stroke="#B1ADC2"/>
<circle cx="14.4331" cy="31.5804" r="3" fill="#B1ADC2" stroke="#B1ADC2"/>
<circle cx="44.124" cy="31.3984" r="3" fill="#B1ADC2" stroke="#B1ADC2"/>
<circle cx="22.6265" cy="31.5804" r="3" fill="#B1ADC2" stroke="#B1ADC2"/>
<circle cx="52.3169" cy="31.3984" r="3" fill="#B1ADC2" stroke="#B1ADC2"/>
<rect x="21.604" y="31.0963" width="2.04443" height="0.968384" fill="white"/>
<rect x="51.2949" y="30.9143" width="2.04443" height="0.968384" fill="white"/>
<rect x="13.4106" y="31.0963" width="2.04443" height="0.968384" fill="white"/>
<rect x="43.1016" y="30.9143" width="2.04443" height="0.968384" fill="white"/>
<rect x="6.31201" y="25.243" width="54.1947" height="3.18713" fill="#E8E6ED" stroke="#B1ADC2"/>
<circle cx="18.4331" cy="24.5804" r="3" fill="#B1ADC2" stroke="#B1ADC2"/>
<rect x="17.4106" y="24.0963" width="2.04443" height="0.968384" fill="white"/>
<circle cx="33.124" cy="24.3984" r="3" fill="#B1ADC2" stroke="#B1ADC2"/>
<rect x="32.1016" y="23.9143" width="2.04443" height="0.968384" fill="white"/>
<circle cx="48.3169" cy="24.3984" r="3" fill="#B1ADC2" stroke="#B1ADC2"/>
<rect x="47.2949" y="23.9143" width="2.04443" height="0.968384" fill="white"/>
<rect x="0.90918" y="8.5365" width="15" height="11" fill="#E8E6ED"/>
<rect x="0.90918" y="8.5365" width="15" height="11" stroke="#B1ADC2"/>
<path d="M8.90918 11.2865V18.0365H7.92918V13.7865C7.92918 13.4332 7.95585 13.1432 8.00918 12.9165L7.97918 12.8965C7.91251 13.0098 7.78918 13.1132 7.60918 13.2065L6.75918 13.6665V12.6865L7.99918 11.8165L8.16918 11.2865H8.90918Z" fill="#2F2E34"/>
<rect width="30" height="2" transform="translate(18.5288 17.5804)" fill="#B1ADC2"/>
</svg>
