<svg width="62" height="37" viewBox="0 0 62 37" fill="none" xmlns="http://www.w3.org/2000/svg">
<path d="M55.2365 8.23938C55.2365 9.05514 54.7575 9.90597 53.723 10.7486C52.6924 11.588 51.1707 12.3661 49.2461 13.0291C45.4018 14.3535 40.0585 15.1816 34.1331 15.1816C28.2077 15.1816 22.8645 14.3535 19.0201 13.0291C17.0955 12.3661 15.5738 11.588 14.5432 10.7486C13.5087 9.90597 13.0298 9.05514 13.0298 8.23938C13.0298 7.42362 13.5087 6.57279 14.5432 5.7302C15.5738 4.89079 17.0955 4.11265 19.0201 3.44964C22.8645 2.12528 28.2077 1.29712 34.1331 1.29712C40.0585 1.29712 45.4018 2.12528 49.2461 3.44964C51.1707 4.11265 52.6924 4.89079 53.723 5.7302C54.7575 6.57279 55.2365 7.42362 55.2365 8.23938Z" fill="#E8E6ED" stroke="#B1ADC2"/>
<rect x="8.65967" y="5.91626" width="50.921" height="20.2404" fill="white" stroke="#B1ADC2"/>
<path d="M11.7534 32.0962L8.99512 28.4758H28.6481L26.407 32.0962H11.7534Z" fill="#E8E6ED" stroke="#B1ADC2"/>
<path d="M41.4443 31.9143L38.686 28.2939H58.339L56.0979 31.9143H41.4443Z" fill="#E8E6ED" stroke="#B1ADC2"/>
<circle cx="14.7251" cy="32.5804" r="3" fill="#B1ADC2" stroke="#B1ADC2"/>
<circle cx="44.416" cy="32.3984" r="3" fill="#B1ADC2" stroke="#B1ADC2"/>
<circle cx="22.9182" cy="32.5804" r="3" fill="#B1ADC2" stroke="#B1ADC2"/>
<circle cx="52.6091" cy="32.3984" r="3" fill="#B1ADC2" stroke="#B1ADC2"/>
<rect x="21.896" y="32.0963" width="2.04443" height="0.968384" fill="white"/>
<rect x="51.5869" y="31.9143" width="2.04443" height="0.968384" fill="white"/>
<rect x="13.7026" y="32.0963" width="2.04443" height="0.968384" fill="white"/>
<rect x="43.3936" y="31.9143" width="2.04443" height="0.968384" fill="white"/>
<rect x="6.604" y="26.243" width="54.1947" height="3.18713" fill="#E8E6ED" stroke="#B1ADC2"/>
<rect x="1.20142" y="10.5365" width="15" height="11" fill="#E8E6ED"/>
<rect x="1.20142" y="10.5365" width="15" height="11" stroke="#B1ADC2"/>
<path d="M9.20142 13.2865V20.0365H8.22142V15.7865C8.22142 15.4332 8.24808 15.1432 8.30142 14.9165L8.27142 14.8965C8.20475 15.0098 8.08142 15.1132 7.90142 15.2065L7.05142 15.6665V14.6865L8.29142 13.8165L8.46142 13.2865H9.20142Z" fill="#2F2E34"/>
<path d="M27.5982 17.1149C27.3249 17.1149 27.0415 17.0982 26.7482 17.0649L26.7582 16.0549C27.0182 16.1016 27.2849 16.1249 27.5582 16.1249C27.9715 16.1249 28.3082 15.8416 28.5682 15.2749L25.9682 10.0249H27.2082L28.6882 13.2449C28.9415 13.7916 29.0849 14.1716 29.1182 14.3849H29.1582C29.1982 14.0182 29.3049 13.6282 29.4782 13.2149L30.8982 10.0249H32.0782L29.6182 15.4549C29.3782 16.0282 29.0949 16.4482 28.7682 16.7149C28.4482 16.9816 28.0582 17.1149 27.5982 17.1149ZM34.2172 17.1749C33.4639 17.1749 32.8505 16.9482 32.3772 16.4949C31.9105 16.0349 31.6772 15.4416 31.6772 14.7149C31.6772 13.9882 31.9105 13.3982 32.3772 12.9449C32.8505 12.4849 33.4639 12.2549 34.2172 12.2549C34.7972 12.2549 35.3239 12.4116 35.7972 12.7249L35.3372 13.5549C34.9839 13.3216 34.6005 13.2049 34.1872 13.2049C33.7539 13.2049 33.4005 13.3449 33.1272 13.6249C32.8539 13.9049 32.7172 14.2682 32.7172 14.7149C32.7172 15.1616 32.8539 15.5249 33.1272 15.8049C33.4005 16.0849 33.7539 16.2249 34.1872 16.2249C34.6005 16.2249 34.9839 16.1082 35.3372 15.8749L35.7972 16.7049C35.3239 17.0182 34.7972 17.1749 34.2172 17.1749ZM40.2052 17.0549C39.6918 17.0549 39.3752 16.8549 39.2552 16.4549L39.0252 15.6349C38.9652 15.4016 38.8885 15.2382 38.7952 15.1449C38.7018 15.0516 38.5618 15.0049 38.3752 15.0049H37.9452C37.8185 15.0049 37.7152 14.9982 37.6352 14.9849L37.6252 14.9949C37.6585 15.1016 37.6752 15.2416 37.6752 15.4149V17.0249H36.6952V12.4049H37.6752V13.8349C37.6752 13.9949 37.6585 14.1282 37.6252 14.2349L37.6352 14.2449C37.7152 14.2316 37.8185 14.2249 37.9452 14.2249H38.3752C38.5685 14.2249 38.7052 14.1916 38.7852 14.1249C38.8652 14.0516 38.9485 13.8982 39.0352 13.6649L39.3752 12.8449C39.5018 12.5316 39.8018 12.3749 40.2752 12.3749H40.7652V13.2549H40.5552C40.4085 13.2549 40.2985 13.2782 40.2252 13.3249C40.1585 13.3716 40.0952 13.4649 40.0352 13.6049L39.8752 14.0249C39.7485 14.3982 39.4218 14.5882 38.8952 14.5949V14.6349C39.1885 14.6416 39.4085 14.6916 39.5552 14.7849C39.7085 14.8716 39.8152 15.0216 39.8752 15.2349L40.0652 15.8849C40.1052 16.0116 40.1518 16.0916 40.2052 16.1249C40.2652 16.1582 40.3752 16.1749 40.5352 16.1749H40.7852V17.0549H40.2052ZM43.5066 10.1249C44.2132 10.1249 44.7832 10.3549 45.2166 10.8149C45.6499 11.2749 45.8666 11.8816 45.8666 12.6349C45.8666 13.1282 45.7766 13.5849 45.5966 14.0049C45.4232 14.4249 45.1332 14.8716 44.7266 15.3449L43.3566 17.0249H42.1866L44.0566 14.7549C44.3899 14.3482 44.6099 14.0382 44.7166 13.8249L44.6766 13.8049C44.3166 14.3649 43.8266 14.6449 43.2066 14.6449C42.6199 14.6449 42.1266 14.4316 41.7266 14.0049C41.3332 13.5782 41.1366 13.0482 41.1366 12.4149C41.1366 11.7416 41.3566 11.1916 41.7966 10.7649C42.2366 10.3382 42.8066 10.1249 43.5066 10.1249ZM43.4866 11.0249C43.0799 11.0249 42.7566 11.1482 42.5166 11.3949C42.2766 11.6416 42.1566 11.9749 42.1566 12.3949C42.1566 12.8082 42.2732 13.1316 42.5066 13.3649C42.7466 13.5982 43.0732 13.7149 43.4866 13.7149C43.9132 13.7149 44.2466 13.5982 44.4866 13.3649C44.7266 13.1316 44.8466 12.8082 44.8466 12.3949C44.8466 11.9682 44.7266 11.6349 44.4866 11.3949C44.2466 11.1482 43.9132 11.0249 43.4866 11.0249Z" fill="#2F2E34"/>
<rect width="34" height="1" transform="translate(21.0066 18.5804)" fill="#B1ADC2"/>
<rect width="34" height="2" transform="translate(21.0066 21.5804)" fill="#B1ADC2"/>
</svg>
