<svg width="61" height="36" viewBox="0 0 61 36" fill="none" xmlns="http://www.w3.org/2000/svg">
<rect x="8.36719" y="15.5669" width="50.921" height="9.63171" fill="white" stroke="#B1ADC2"/>
<rect width="8" height="1" transform="matrix(0 -1 1 0 20.0063 25.3206)" fill="#B1ADC2"/>
<rect width="8" height="2" transform="matrix(0 -1 1 0 23.0063 25.3206)" fill="#B1ADC2"/>
<rect width="8" height="1" transform="matrix(0 -1 1 0 27.0063 25.3206)" fill="#B1ADC2"/>
<rect width="8" height="2" transform="matrix(0 -1 1 0 30.0063 25.3206)" fill="#B1ADC2"/>
<rect width="8" height="1" transform="matrix(0 -1 1 0 34.0063 25.3206)" fill="#B1ADC2"/>
<rect width="8" height="2" transform="matrix(0 -1 1 0 37.0063 25.3206)" fill="#B1ADC2"/>
<rect width="8" height="1" transform="matrix(0 -1 1 0 41.0063 25.3206)" fill="#B1ADC2"/>
<rect width="8" height="2" transform="matrix(0 -1 1 0 44.0063 25.3206)" fill="#B1ADC2"/>
<rect width="8" height="1" transform="matrix(0 -1 1 0 48.0063 25.3206)" fill="#B1ADC2"/>
<rect width="8" height="2" transform="matrix(0 -1 1 0 51.0063 25.3206)" fill="#B1ADC2"/>
<path d="M11.4614 31.1382L8.70312 27.5178H28.3561L26.115 31.1382H11.4614Z" fill="#E8E6ED" stroke="#B1ADC2"/>
<path d="M41.1523 30.9563L38.394 27.3359H58.047L55.8059 30.9563H41.1523Z" fill="#E8E6ED" stroke="#B1ADC2"/>
<circle cx="14.4331" cy="31.6224" r="3" fill="#B1ADC2" stroke="#B1ADC2"/>
<circle cx="44.124" cy="31.4404" r="3" fill="#B1ADC2" stroke="#B1ADC2"/>
<circle cx="22.6265" cy="31.6224" r="3" fill="#B1ADC2" stroke="#B1ADC2"/>
<circle cx="52.3169" cy="31.4404" r="3" fill="#B1ADC2" stroke="#B1ADC2"/>
<rect x="21.604" y="31.1383" width="2.04443" height="0.968384" fill="white"/>
<rect x="51.2949" y="30.9563" width="2.04443" height="0.968384" fill="white"/>
<rect x="13.4106" y="31.1383" width="2.04443" height="0.968384" fill="white"/>
<rect x="43.1016" y="30.9563" width="2.04443" height="0.968384" fill="white"/>
<rect x="6.31201" y="25.285" width="54.1947" height="3.18713" fill="#E8E6ED" stroke="#B1ADC2"/>
<circle cx="18.4331" cy="24.6224" r="3" fill="#B1ADC2" stroke="#B1ADC2"/>
<rect x="17.4106" y="24.1383" width="2.04443" height="0.968384" fill="white"/>
<circle cx="33.124" cy="24.4404" r="3" fill="#B1ADC2" stroke="#B1ADC2"/>
<rect x="32.1016" y="23.9563" width="2.04443" height="0.968384" fill="white"/>
<circle cx="48.3169" cy="24.4404" r="3" fill="#B1ADC2" stroke="#B1ADC2"/>
<rect x="47.2949" y="23.9563" width="2.04443" height="0.968384" fill="white"/>
<rect x="0.90918" y="8.57849" width="15" height="11" fill="#E8E6ED"/>
<rect x="0.90918" y="8.57849" width="15" height="11" stroke="#B1ADC2"/>
<path d="M8.90918 11.3285V18.0785H7.92918V13.8285C7.92918 13.4752 7.95585 13.1852 8.00918 12.9585L7.97918 12.9385C7.91251 13.0518 7.78918 13.1552 7.60918 13.2485L6.75918 13.7085V12.7285L7.99918 11.8585L8.16918 11.3285H8.90918Z" fill="#2F2E34"/>
</svg>
