<svg width="62" height="36" viewBox="0 0 62 36" fill="none" xmlns="http://www.w3.org/2000/svg">
<path d="M55.2433 7.44751C55.2433 8.26327 54.7643 9.1141 53.7298 9.95669C52.6992 10.7961 51.1775 11.5742 49.253 12.2372C45.4086 13.5616 40.0654 14.3898 34.14 14.3898C28.2146 14.3898 22.8713 13.5616 19.0269 12.2372C17.1024 11.5742 15.5807 10.7961 14.5501 9.95669C13.5156 9.1141 13.0366 8.26327 13.0366 7.44751C13.0366 6.63175 13.5156 5.78092 14.5501 4.93833C15.5807 4.09892 17.1024 3.32078 19.0269 2.65777C22.8713 1.33341 28.2146 0.505249 34.14 0.505249C40.0654 0.505249 45.4086 1.33341 49.253 2.65777C51.1775 3.32078 52.6992 4.09892 53.7298 4.93833C54.7643 5.78092 55.2433 6.63175 55.2433 7.44751Z" fill="#E8E6ED" stroke="#B1ADC2"/>
<rect x="8.6665" y="5.12439" width="50.921" height="20.2404" fill="white" stroke="#B1ADC2"/>
<path d="M11.7603 31.3043L9.00195 27.684H28.6549L26.4138 31.3043H11.7603Z" fill="#E8E6ED" stroke="#B1ADC2"/>
<path d="M41.4512 31.1224L38.6929 27.5021H58.3458L56.1047 31.1224H41.4512Z" fill="#E8E6ED" stroke="#B1ADC2"/>
<circle cx="14.7319" cy="31.7886" r="3" fill="#B1ADC2" stroke="#B1ADC2"/>
<circle cx="44.4229" cy="31.6066" r="3" fill="#B1ADC2" stroke="#B1ADC2"/>
<circle cx="22.925" cy="31.7886" r="3" fill="#B1ADC2" stroke="#B1ADC2"/>
<circle cx="52.616" cy="31.6066" r="3" fill="#B1ADC2" stroke="#B1ADC2"/>
<rect x="21.9028" y="31.3044" width="2.04443" height="0.968384" fill="white"/>
<rect x="51.5938" y="31.1224" width="2.04443" height="0.968384" fill="white"/>
<rect x="13.7095" y="31.3044" width="2.04443" height="0.968384" fill="white"/>
<rect x="43.4004" y="31.1224" width="2.04443" height="0.968384" fill="white"/>
<rect x="6.61084" y="25.4512" width="54.1947" height="3.18713" fill="#E8E6ED" stroke="#B1ADC2"/>
<rect x="1.20825" y="9.74463" width="15" height="11" fill="#E8E6ED"/>
<rect x="1.20825" y="9.74463" width="15" height="11" stroke="#B1ADC2"/>
<path d="M9.20825 12.4946V19.2446H8.22825V14.9946C8.22825 14.6413 8.25492 14.3513 8.30825 14.1246L8.27825 14.1046C8.21159 14.218 8.08825 14.3213 7.90825 14.4146L7.05825 14.8746V13.8946L8.29825 13.0246L8.46825 12.4946H9.20825Z" fill="#2F2E34"/>
<rect width="8" height="1" transform="matrix(0 -1 1 0 21.0068 25.3206)" fill="#B1ADC2"/>
<rect width="8" height="2" transform="matrix(0 -1 1 0 24.0068 25.3206)" fill="#B1ADC2"/>
<rect width="8" height="1" transform="matrix(0 -1 1 0 28.0068 25.3206)" fill="#B1ADC2"/>
<rect width="8" height="2" transform="matrix(0 -1 1 0 31.0068 25.3206)" fill="#B1ADC2"/>
<rect width="8" height="1" transform="matrix(0 -1 1 0 35.0068 25.3206)" fill="#B1ADC2"/>
<rect width="8" height="2" transform="matrix(0 -1 1 0 38.0068 25.3206)" fill="#B1ADC2"/>
<rect width="8" height="1" transform="matrix(0 -1 1 0 42.0068 25.3206)" fill="#B1ADC2"/>
<rect width="8" height="2" transform="matrix(0 -1 1 0 45.0068 25.3206)" fill="#B1ADC2"/>
<rect width="8" height="1" transform="matrix(0 -1 1 0 49.0068 25.3206)" fill="#B1ADC2"/>
<rect width="8" height="2" transform="matrix(0 -1 1 0 52.0068 25.3206)" fill="#B1ADC2"/>
<path d="M29.505 15.383C28.585 15.383 27.8084 15.1997 27.175 14.833L27.645 13.883C28.265 14.2097 28.905 14.373 29.565 14.373C30.505 14.373 30.975 14.003 30.975 13.263C30.975 12.4697 30.3917 12.073 29.225 12.073H28.265V11.053H29.215C30.2217 11.053 30.725 10.703 30.725 10.003C30.725 9.39637 30.3317 9.09303 29.545 9.09303C28.985 9.09303 28.375 9.24303 27.715 9.54303L27.345 8.57303C28.1584 8.24637 28.9317 8.08303 29.665 8.08303C31.1184 8.08303 31.845 8.66303 31.845 9.82303C31.845 10.6364 31.4717 11.1564 30.725 11.383C30.5117 11.443 30.285 11.4797 30.045 11.493V11.533C30.3117 11.533 30.5417 11.553 30.735 11.593C31.635 11.793 32.085 12.3797 32.085 13.353C32.085 14.7064 31.225 15.383 29.505 15.383ZM35.0005 10.463C35.6739 10.463 36.1639 10.6164 36.4705 10.923C36.7839 11.223 36.9405 11.6964 36.9405 12.343V15.233H35.9505C35.9505 14.953 35.9972 14.7097 36.0905 14.503L36.0505 14.483C35.7039 15.083 35.1872 15.383 34.5005 15.383C34.0072 15.383 33.6039 15.2364 33.2905 14.943C32.9839 14.643 32.8305 14.2497 32.8305 13.763C32.8305 13.263 32.9839 12.8664 33.2905 12.573C33.5972 12.2797 34.0039 12.133 34.5105 12.133C35.2039 12.133 35.7139 12.3897 36.0405 12.903L36.0705 12.883C36.0372 12.763 36.0105 12.5497 35.9905 12.243C35.9505 11.663 35.5939 11.373 34.9205 11.373C34.5539 11.373 34.1105 11.4564 33.5905 11.623L33.3205 10.743C33.8872 10.5564 34.4472 10.463 35.0005 10.463ZM35.6105 13.173C35.4172 13.0197 35.1705 12.943 34.8705 12.943C34.5705 12.943 34.3272 13.0197 34.1405 13.173C33.9605 13.3264 33.8705 13.5264 33.8705 13.773C33.8705 14.0197 33.9605 14.2164 34.1405 14.363C34.3205 14.5097 34.5605 14.583 34.8605 14.583C35.1672 14.583 35.4172 14.5097 35.6105 14.363C35.8105 14.2097 35.9105 14.0097 35.9105 13.763C35.9105 13.523 35.8105 13.3264 35.6105 13.173ZM40.8203 10.463C41.4736 10.463 42.0103 10.693 42.4303 11.153C42.8503 11.613 43.0603 12.203 43.0603 12.923C43.0603 13.643 42.8503 14.233 42.4303 14.693C42.0103 15.153 41.4736 15.383 40.8203 15.383C40.0269 15.383 39.4603 15.033 39.1203 14.333L39.0803 14.343C39.1403 14.563 39.1703 14.8864 39.1703 15.313V17.233H38.1903V10.613H39.1403C39.1403 11.0397 39.1203 11.3364 39.0803 11.503L39.1203 11.513C39.4669 10.813 40.0336 10.463 40.8203 10.463ZM40.6303 11.383C40.1903 11.383 39.8303 11.5264 39.5503 11.813C39.2703 12.0997 39.1303 12.4697 39.1303 12.923C39.1303 13.3764 39.2703 13.7464 39.5503 14.033C39.8303 14.3197 40.1903 14.463 40.6303 14.463C41.0636 14.463 41.4036 14.3264 41.6503 14.053C41.897 13.7797 42.0203 13.403 42.0203 12.923C42.0203 12.443 41.897 12.0664 41.6503 11.793C41.4036 11.5197 41.0636 11.383 40.6303 11.383Z" fill="#2F2E34"/>
</svg>
