<svg width="61" height="37" viewBox="0 0 61 37" fill="none" xmlns="http://www.w3.org/2000/svg">
<path d="M54.9445 8.23938C54.9445 9.05514 54.4655 9.90597 53.431 10.7486C52.4004 11.588 50.8787 12.3661 48.9541 13.0291C45.1098 14.3535 39.7665 15.1816 33.8411 15.1816C27.9157 15.1816 22.5725 14.3535 18.7281 13.0291C16.8035 12.3661 15.2818 11.588 14.2512 10.7486C13.2167 9.90597 12.7378 9.05514 12.7378 8.23938C12.7378 7.42362 13.2167 6.57279 14.2512 5.7302C15.2818 4.89079 16.8035 4.11265 18.7281 3.44964C22.5725 2.12528 27.9157 1.29712 33.8411 1.29712C39.7665 1.29712 45.1098 2.12528 48.9541 3.44964C50.8787 4.11265 52.4004 4.89079 53.431 5.7302C54.4655 6.57279 54.9445 7.42362 54.9445 8.23938Z" fill="#E8E6ED" stroke="#B1ADC2"/>
<path d="M11.4614 32.0962L8.70312 28.4758H28.3561L26.115 32.0962H11.4614Z" fill="#E8E6ED" stroke="#B1ADC2"/>
<path d="M41.1523 31.9143L38.394 28.2939H58.047L55.8059 31.9143H41.1523Z" fill="#E8E6ED" stroke="#B1ADC2"/>
<circle cx="14.4331" cy="32.5804" r="3" fill="#B1ADC2" stroke="#B1ADC2"/>
<circle cx="44.124" cy="32.3984" r="3" fill="#B1ADC2" stroke="#B1ADC2"/>
<circle cx="22.6262" cy="32.5804" r="3" fill="#B1ADC2" stroke="#B1ADC2"/>
<circle cx="52.3171" cy="32.3984" r="3" fill="#B1ADC2" stroke="#B1ADC2"/>
<rect x="21.604" y="32.0963" width="2.04443" height="0.968384" fill="white"/>
<rect x="51.2949" y="31.9143" width="2.04443" height="0.968384" fill="white"/>
<rect x="13.4106" y="32.0963" width="2.04443" height="0.968384" fill="white"/>
<rect x="43.1016" y="31.9143" width="2.04443" height="0.968384" fill="white"/>
<rect x="6.31201" y="26.243" width="54.1947" height="3.18713" fill="#E8E6ED" stroke="#B1ADC2"/>
<rect x="14.8965" y="11.7738" width="14.6898" height="1.11673" transform="rotate(100.267 14.8965 11.7738)" fill="#B1ADC2"/>
<path d="M11.7979 9.21649V5.72498H56.8382V9.21649H55.6744V12.1261H53.4631V23.9972C50.3983 24.5791 42.3601 25.743 34.7253 25.743C27.0905 25.743 18.354 24.5791 14.9401 23.9972V12.1261H12.7288V9.21649H11.7979Z" fill="white" stroke="#B1ADC2"/>
<rect width="14.2979" height="1.11673" transform="matrix(-0.178232 -0.983988 -0.983988 0.178232 57.2256 26.1219)" fill="#B1ADC2"/>
<rect x="0.90918" y="9.5365" width="15" height="11" fill="#E8E6ED"/>
<rect x="0.90918" y="9.5365" width="15" height="11" stroke="#B1ADC2"/>
<path d="M8.90918 12.2865V19.0365H7.92918V14.7865C7.92918 14.4332 7.95585 14.1432 8.00918 13.9165L7.97918 13.8965C7.91251 14.0098 7.78918 14.1132 7.60918 14.2065L6.75918 14.6665V13.6865L7.99918 12.8165L8.16918 12.2865H8.90918Z" fill="#2F2E34"/>
<path d="M28.206 17.1749C27.286 17.1749 26.5093 16.9916 25.876 16.6249L26.346 15.6749C26.966 16.0016 27.606 16.1649 28.266 16.1649C29.206 16.1649 29.676 15.7949 29.676 15.0549C29.676 14.2616 29.0926 13.8649 27.926 13.8649H26.966V12.8449H27.916C28.9226 12.8449 29.426 12.4949 29.426 11.7949C29.426 11.1882 29.0326 10.8849 28.246 10.8849C27.686 10.8849 27.076 11.0349 26.416 11.3349L26.046 10.3649C26.8593 10.0382 27.6326 9.8749 28.366 9.8749C29.8193 9.8749 30.546 10.4549 30.546 11.6149C30.546 12.4282 30.1726 12.9482 29.426 13.1749C29.2126 13.2349 28.986 13.2716 28.746 13.2849V13.3249C29.0126 13.3249 29.2426 13.3449 29.436 13.3849C30.336 13.5849 30.786 14.1716 30.786 15.1449C30.786 16.4982 29.926 17.1749 28.206 17.1749ZM33.7014 12.2549C34.3748 12.2549 34.8648 12.4082 35.1714 12.7149C35.4848 13.0149 35.6414 13.4882 35.6414 14.1349V17.0249H34.6514C34.6514 16.7449 34.6981 16.5016 34.7914 16.2949L34.7514 16.2749C34.4048 16.8749 33.8881 17.1749 33.2014 17.1749C32.7081 17.1749 32.3048 17.0282 31.9914 16.7349C31.6848 16.4349 31.5314 16.0416 31.5314 15.5549C31.5314 15.0549 31.6848 14.6582 31.9914 14.3649C32.2981 14.0716 32.7048 13.9249 33.2114 13.9249C33.9048 13.9249 34.4148 14.1816 34.7414 14.6949L34.7714 14.6749C34.7381 14.5549 34.7114 14.3416 34.6914 14.0349C34.6514 13.4549 34.2948 13.1649 33.6214 13.1649C33.2548 13.1649 32.8114 13.2482 32.2914 13.4149L32.0214 12.5349C32.5881 12.3482 33.1481 12.2549 33.7014 12.2549ZM34.3114 14.9649C34.1181 14.8116 33.8714 14.7349 33.5714 14.7349C33.2714 14.7349 33.0281 14.8116 32.8414 14.9649C32.6614 15.1182 32.5714 15.3182 32.5714 15.5649C32.5714 15.8116 32.6614 16.0082 32.8414 16.1549C33.0214 16.3016 33.2614 16.3749 33.5614 16.3749C33.8681 16.3749 34.1181 16.3016 34.3114 16.1549C34.5114 16.0016 34.6114 15.8016 34.6114 15.5549C34.6114 15.3149 34.5114 15.1182 34.3114 14.9649ZM39.5212 12.2549C40.1745 12.2549 40.7112 12.4849 41.1312 12.9449C41.5512 13.4049 41.7612 13.9949 41.7612 14.7149C41.7612 15.4349 41.5512 16.0249 41.1312 16.4849C40.7112 16.9449 40.1745 17.1749 39.5212 17.1749C38.7279 17.1749 38.1612 16.8249 37.8212 16.1249L37.7812 16.1349C37.8412 16.3549 37.8712 16.6782 37.8712 17.1049V19.0249H36.8912V12.4049H37.8412C37.8412 12.8316 37.8212 13.1282 37.7812 13.2949L37.8212 13.3049C38.1679 12.6049 38.7345 12.2549 39.5212 12.2549ZM39.3312 13.1749C38.8912 13.1749 38.5312 13.3182 38.2512 13.6049C37.9712 13.8916 37.8312 14.2616 37.8312 14.7149C37.8312 15.1682 37.9712 15.5382 38.2512 15.8249C38.5312 16.1116 38.8912 16.2549 39.3312 16.2549C39.7645 16.2549 40.1045 16.1182 40.3512 15.8449C40.5979 15.5716 40.7212 15.1949 40.7212 14.7149C40.7212 14.2349 40.5979 13.8582 40.3512 13.5849C40.1045 13.3116 39.7645 13.1749 39.3312 13.1749Z" fill="#2F2E34"/>
<rect width="5" height="1" transform="matrix(0 -1 1 0 18 25.0804)" fill="#B1ADC2"/>
<rect width="5" height="2" transform="matrix(0 -1 1 0 21 25.0804)" fill="#B1ADC2"/>
<rect width="5" height="1" transform="matrix(0 -1 1 0 25 25.0804)" fill="#B1ADC2"/>
<rect width="5" height="2" transform="matrix(0 -1 1 0 28 25.0804)" fill="#B1ADC2"/>
<rect width="5" height="1" transform="matrix(0 -1 1 0 32 25.0804)" fill="#B1ADC2"/>
<rect width="5" height="2" transform="matrix(0 -1 1 0 35 25.0804)" fill="#B1ADC2"/>
<rect width="5" height="1" transform="matrix(0 -1 1 0 39 25.0804)" fill="#B1ADC2"/>
<rect width="5" height="2" transform="matrix(0 -1 1 0 42 25.0804)" fill="#B1ADC2"/>
<rect width="5" height="1" transform="matrix(0 -1 1 0 46 25.0804)" fill="#B1ADC2"/>
<rect width="5" height="2" transform="matrix(0 -1 1 0 49 25.0804)" fill="#B1ADC2"/>
</svg>
